<svg width="64" height="64" viewBox="0 0 64 64" fill="none" xmlns="http://www.w3.org/2000/svg">
<path d="M37.9998 19.9999L4 53.9998L9.9998 59.9996L43.9996 25.9997L37.9998 19.9999Z" stroke="black" stroke-width="2" stroke-miterlimit="10" stroke-linecap="square"/>
<path d="M30 28L36 34" stroke="black" stroke-width="2" stroke-miterlimit="10"/>
<path d="M38 9C34.134 9 31 12.134 31 16C31 12.134 27.866 9 24 9C27.866 9 31 5.866 31 2C31 5.866 34.134 9 38 9Z" stroke="black" stroke-width="2" stroke-miterlimit="10"/>
<path d="M60 9C57.239 9 55 11.239 55 14C55 11.239 52.761 9 50 9C52.761 9 55 6.761 55 4C55 6.761 57.239 9 60 9Z" stroke="black" stroke-width="2" stroke-miterlimit="10"/>
<path d="M62 33C58.134 33 55 36.134 55 40C55 36.134 51.866 33 48 33C51.866 33 55 29.866 55 26C55 29.866 58.134 33 62 33Z" stroke="black" stroke-width="2" stroke-miterlimit="10"/>
<path d="M15 28C15 25.791 16.791 24 19 24C16.791 24 15 22.209 15 20C15 22.209 13.209 24 11 24C13.209 24 15 25.791 15 28Z" stroke="black" stroke-width="2" stroke-miterlimit="10"/>
<path d="M40 53C40 50.791 41.791 49 44 49C41.791 49 40 47.209 40 45C40 47.209 38.209 49 36 49C38.209 49 40 50.791 40 53Z" stroke="black" stroke-width="2" stroke-miterlimit="10"/>
</svg>
