<svg width="73" height="109" viewBox="0 0 73 109" fill="none" xmlns="http://www.w3.org/2000/svg">
<path d="M0.858 89.48H9.823V93.176H5.126V94.881H9.438V98.566H5.126V104H0.858V89.48ZM11.5295 89.48H18.0415C18.9215 89.48 19.6989 89.667 20.3735 90.041C21.0482 90.4077 21.5762 90.9357 21.9575 91.625C22.3389 92.307 22.5295 93.1173 22.5295 94.056C22.5295 94.9873 22.3755 95.7427 22.0675 96.322C21.7669 96.894 21.4039 97.323 20.9785 97.609C20.5532 97.895 20.1609 98.0783 19.8015 98.159L23.2775 104H18.5035L15.5115 98.489H15.7975V104H11.5295V89.48ZM15.7975 95.607H16.5015C16.8902 95.607 17.2605 95.5153 17.6125 95.332C17.9719 95.1487 18.1515 94.771 18.1515 94.199C18.1515 93.627 17.9792 93.2493 17.6345 93.066C17.2899 92.8827 16.9232 92.791 16.5345 92.791H15.7975V95.607ZM29.0929 89.48H33.2619L39.2459 104H34.7029L33.7789 101.481H28.5979L27.6629 104H23.1089L29.0929 89.48ZM30.0279 97.785H32.3489L31.2049 94.584H31.1719L30.0279 97.785ZM44.0658 93.352L44.3848 93.407V104H40.1278V89.48H45.8808L50.6218 100.04L50.3028 100.106V89.48H54.5598V104H48.7738L44.0658 93.352ZM64.2488 96.377L69.4738 104H64.4028L60.5858 97.895V104H56.3288V89.48H60.5858V94.936L64.0398 89.48H68.8248L64.2488 96.377Z" fill="black"/>
<path d="M50.7591 19.1739L64.2891 19.2539C64.4379 19.257 64.5845 19.2895 64.7201 19.3496C64.8558 19.4097 64.9778 19.4962 65.0791 19.6039C81.1891 36.7039 67.6791 65.1939 47.2291 71.2239C35.2091 74.7639 20.8891 70.3239 13.5291 59.0939C13.3425 58.8139 13.2491 58.5106 13.2491 58.1839C13.2425 39.8573 13.2425 21.5406 13.2491 3.23394C13.2491 0.993938 14.5691 -0.186061 16.8391 0.0239392C25.9725 0.870606 32.4858 5.45727 36.3791 13.7839C36.5191 14.0839 36.7558 14.2339 37.0891 14.2339C41.6891 14.2139 48.4691 12.8039 50.1291 18.6939C50.2225 19.0139 50.4325 19.1739 50.7591 19.1739ZM48.7491 64.5339C42.8291 61.5139 38.8491 56.1039 38.3691 49.3939C38.3491 49.0606 38.4425 48.7639 38.6491 48.5039C39.9425 46.9173 41.4358 46.7173 43.1291 47.9039C43.4091 48.1039 43.5758 48.3739 43.6291 48.7139C44.6358 55.1339 48.2791 59.1306 54.5591 60.7039C54.8103 60.7652 55.0731 60.7615 55.3231 60.6933C55.5732 60.6251 55.8023 60.4946 55.9891 60.3139C64.0491 52.5739 69.2691 40.8439 65.4991 29.6639C65.3791 29.3173 65.1391 29.1939 64.7791 29.2939C60.5525 30.5339 57.9258 29.0406 56.8991 24.8139C56.8391 24.5939 56.6958 24.4839 56.4691 24.4839H46.9291C46.5809 24.4837 46.2424 24.3518 45.9791 24.1139C44.8658 23.1206 44.4658 21.8606 44.7791 20.3339C44.794 20.2611 44.7929 20.1859 44.7756 20.1137C44.7584 20.0415 44.7256 19.9743 44.6797 19.9168C44.6337 19.8593 44.5757 19.8131 44.5098 19.7814C44.444 19.7498 44.372 19.7336 44.2991 19.7339L34.6191 19.7239C34.0458 19.7245 33.487 19.5451 33.0222 19.2112C32.5573 18.8773 32.2098 18.406 32.0291 17.8639C29.9425 11.5706 25.6991 7.5506 19.2991 5.80394C18.9325 5.70394 18.7491 5.84394 18.7491 6.22394V56.7739C18.7494 57.1215 18.8779 57.4536 19.1091 57.7039C27.1691 66.6039 37.0325 69.0906 48.6991 65.1639C48.7642 65.1439 48.8218 65.1048 48.8644 65.0516C48.9069 64.9985 48.9326 64.9338 48.938 64.8659C48.9434 64.798 48.9282 64.7301 48.8946 64.6709C48.8609 64.6117 48.8102 64.564 48.7491 64.5339Z" fill="#252C34"/>
<path d="M36.43 37.5338C39.2908 37.5338 41.61 35.2147 41.61 32.3538C41.61 29.493 39.2908 27.1738 36.43 27.1738C33.5692 27.1738 31.25 29.493 31.25 32.3538C31.25 35.2147 33.5692 37.5338 36.43 37.5338Z" fill="#252C34"/>
<path d="M13.63 64.4638C23.77 74.1938 37.08 77.3138 50.4 73.0438C50.8 72.9105 51 73.0539 51 73.4739V81.2138C50.9994 81.3623 50.9487 81.5063 50.8562 81.6224C50.7636 81.7386 50.6346 81.8201 50.49 81.8538C37.09 85.1405 24.7533 83.0005 13.48 75.4338C13.332 75.335 13.2108 75.2011 13.1271 75.0441C13.0433 74.8871 12.9997 74.7118 13 74.5338V64.7338C13 64.1472 13.21 64.0572 13.63 64.4638Z" fill="#DF4C2C"/>
</svg>
