<svg width="300" height="67" viewBox="0 0 300 67" fill="none" xmlns="http://www.w3.org/2000/svg">
<path d="M49.7296 8.38116C49.0933 6.26036 47.8663 4.63189 46.0485 3.49574C44.2306 2.3596 42.1856 1.57945 39.9133 1.15529C37.641 0.731129 35.4899 0.519043 33.46 0.519043C22.8257 0.549343 14.5091 3.58663 8.51026 9.63091C2.51142 15.6752 -0.291063 24.0599 0.102807 34.7851C0.557267 41.3899 2.40538 47.0706 5.64718 51.8273C8.88898 56.5839 12.9867 60.1211 17.9403 62.4389C22.8938 64.7566 28.1731 65.5292 33.7781 64.7566C39.3831 63.984 44.7608 61.3557 49.9113 56.8717C43.6095 59.4167 37.641 60.0454 32.0057 58.7578C26.3704 57.4701 21.7501 54.6449 18.1448 50.2821C14.5394 45.9193 12.6155 40.375 12.3731 33.649C12.2823 29.9224 12.8579 25.8702 14.1001 21.4922C15.3423 17.1143 17.3873 13.2817 20.2353 9.99448C23.0832 6.70724 26.8552 4.85153 31.5513 4.42737C33.9144 4.24559 36.1943 4.51069 38.3908 5.22267C40.5874 5.93465 41.9886 7.53283 42.5946 10.0172C42.8066 11.2897 42.693 12.4788 42.2537 13.5847C41.8144 14.6905 41.1252 15.5313 40.186 16.1069C42.1553 16.8341 43.9428 16.8719 45.5485 16.2205C47.1543 15.5691 48.351 14.5239 49.1388 13.0848C49.9265 11.6457 50.1234 10.0778 49.7296 8.38116Z" fill="black"/>
<path d="M97.9471 65.7336H86.4493C86.4493 62.7947 86.4493 58.7198 86.4493 53.5087C86.4493 48.2976 86.4493 43.6924 86.4493 39.6931C86.4493 38.6933 86.4493 37.7996 86.4493 37.0119C86.4493 31.3463 85.0102 27.9833 82.132 26.9229C79.2537 25.8625 76.3679 26.1427 73.4746 27.7636C70.5812 29.3845 69.1345 31.3917 69.1345 33.7852C69.1345 34.482 69.1345 35.194 69.1345 35.9211C69.1345 45.8586 69.1345 55.7809 69.1345 65.6881H57.6367V0.700684H69.1345V27.1956C71.8915 24.8627 75.2242 23.6053 79.1326 23.4236C83.8286 23.4539 88.0778 24.9233 91.8801 27.8318C95.6824 30.7403 97.7047 35.0122 97.9471 40.6475V65.7336Z" fill="black"/>
<path d="M126.35 60.0074C128.956 59.2803 131.031 57.7806 132.576 55.5083L132.44 42.5108C130.258 42.2684 128.016 42.3593 125.714 42.7835C122.078 43.6015 119.503 44.9952 117.988 46.9645C116.473 48.9641 115.867 51.0697 116.17 53.2814C116.443 55.4931 117.488 57.3413 119.306 58.8258C121.427 60.3407 123.775 60.7345 126.35 60.0074ZM132.985 65.779V62.6887L144.119 53.236C144.119 57.417 144.119 61.598 144.119 65.779C140.423 65.779 136.712 65.779 132.985 65.779ZM184.975 26.2412C185.914 27.8773 186.323 29.5739 186.202 31.3311C186.081 33.1187 185.399 34.5578 184.157 35.6485C182.945 36.7089 181.158 36.9816 178.795 36.4665C179.855 34.7396 180.128 33.0581 179.613 31.422C179.098 29.7557 177.992 28.5893 176.295 27.9227C174.962 27.4683 173.447 27.4985 171.75 28.0136C170.024 28.5286 168.191 29.6648 166.252 31.422L129.44 62.0525C127.592 63.6279 125.502 64.7792 123.169 65.5063C118.443 66.7788 114.655 66.5213 111.808 64.7337C108.929 62.9462 107.187 60.4316 106.581 57.1898C105.945 53.9177 106.642 50.7365 108.672 47.6462C110.702 44.5559 114.262 42.3442 119.351 41.0111C121.291 40.5869 123.26 40.3142 125.259 40.1931H130.031C130.122 40.1931 130.258 40.2082 130.44 40.2385C130.683 40.2688 130.94 40.2991 131.213 40.3294C131.516 40.3597 131.758 40.3748 131.94 40.3748C132.152 40.3445 132.258 40.284 132.258 40.1931L132.076 36.0121C131.985 33.5277 131.304 31.2857 130.031 29.2861C128.759 27.2865 126.85 26.12 124.305 25.7868C121.306 25.6353 119.17 26.317 117.897 27.8318C116.625 29.3467 116.125 30.9979 116.398 32.7854C116.64 34.5729 117.534 35.8 119.079 36.4665C116.049 37.5572 113.565 37.4815 111.626 36.2393C109.687 34.9971 108.99 33.1035 109.535 30.5586C110.444 27.7106 112.504 25.5899 115.716 24.1962C118.927 22.8328 122.472 22.3026 126.35 22.6056C131.258 22.9994 135.182 24.3931 138.121 26.7866C141.09 29.1498 142.938 32.5128 143.665 36.8756C144.029 39.5114 144.18 42.1775 144.119 44.874V46.3283L154.754 37.6027V23.3782L166.252 23.4236V28.3318C171.129 23.8478 175.886 22.0905 180.521 23.06C182.521 23.5751 184.006 24.6355 184.975 26.2412ZM166.252 45.2375V65.779H154.708V44.1923L157.071 42.329C159.526 40.4506 161.677 39.8749 163.525 40.6021C165.343 41.2989 166.252 42.8441 166.252 45.2375Z" fill="black"/>
<path d="M193.52 65.6883V0.700928H205.017V65.6883H193.52Z" fill="black"/>
<path d="M223.47 45.0105C223.591 48.5856 224.386 51.8501 225.855 54.8041C227.325 57.758 229.544 59.8561 232.513 61.0983C235.27 62.0678 238.05 62.3935 240.853 62.0754C243.655 61.7573 245.98 61.1589 247.828 60.2803C245.889 62.1284 243.67 63.5827 241.171 64.6431C238.671 65.7035 235.982 66.2337 233.104 66.2337C229.196 66.2337 225.636 65.2793 222.424 63.3706C219.213 61.4619 216.653 58.9017 214.744 55.6902C212.835 52.4787 211.881 48.9188 211.881 45.0105C211.881 41.1022 212.835 37.5423 214.744 34.3308C216.653 31.1193 219.213 28.5591 222.424 26.6504C225.636 24.7417 229.196 23.7874 233.104 23.7874C237.012 23.7874 240.572 24.7417 243.784 26.6504C246.995 28.5591 249.555 31.1193 251.464 34.3308C253.373 37.5423 254.327 41.1022 254.327 45.0105H223.47ZM242.693 42.2838C242.602 40.8901 242.39 39.3146 242.057 37.5574C241.724 35.8002 241.201 34.0884 240.489 32.422C239.777 30.7557 238.823 29.3696 237.626 28.2637C236.429 27.1579 234.907 26.605 233.059 26.605C231.392 26.605 229.961 27.1503 228.764 28.241C227.567 29.3317 226.59 30.7102 225.833 32.3766C225.075 34.0429 224.507 35.7623 224.129 37.5347C223.75 39.3071 223.53 40.8901 223.47 42.2838L242.693 42.2838Z" fill="black"/>
<path d="M269.141 45.0105C269.263 48.5856 270.058 51.8501 271.527 54.8041C272.997 57.758 275.216 59.8561 278.185 61.0983C280.942 62.0678 283.722 62.3935 286.524 62.0754C289.327 61.7573 291.652 61.1589 293.5 60.2803C291.561 62.1284 289.342 63.5827 286.842 64.6431C284.343 65.7035 281.654 66.2337 278.776 66.2337C274.868 66.2337 271.308 65.2793 268.096 63.3706C264.885 61.4619 262.325 58.9017 260.416 55.6902C258.507 52.4787 257.553 48.9188 257.553 45.0105C257.553 41.1022 258.507 37.5423 260.416 34.3308C262.325 31.1193 264.885 28.5591 268.096 26.6504C271.308 24.7417 274.868 23.7874 278.776 23.7874C282.684 23.7874 286.244 24.7417 289.456 26.6504C292.667 28.5591 295.227 31.1193 297.136 34.3308C299.045 37.5423 299.999 41.1022 299.999 45.0105H269.141ZM288.365 42.2838C288.274 40.8901 288.062 39.3146 287.729 37.5574C287.395 35.8002 286.873 34.0884 286.161 32.422C285.449 30.7557 284.494 29.3696 283.298 28.2637C282.101 27.1579 280.579 26.605 278.73 26.605C277.064 26.605 275.633 27.1503 274.436 28.241C273.239 29.3317 272.262 30.7102 271.505 32.3766C270.747 34.0429 270.179 35.7623 269.8 37.5347C269.422 39.3071 269.202 40.8901 269.141 42.2838L288.365 42.2838Z" fill="black"/>
</svg>
