<svg width="83" height="77" viewBox="0 0 83 77" fill="none" xmlns="http://www.w3.org/2000/svg">
<path fill-rule="evenodd" clip-rule="evenodd" d="M27.4734 0.870801C27.5271 0.692801 27.51 0.5218 27.422 0.3578C27.3339 0.1938 27.2007 0.0848045 27.0225 0.0308045C26.8443 -0.0231955 26.6732 -0.00620065 26.5091 0.0817994C26.3451 0.169799 26.2362 0.303793 26.1825 0.481793C26.1286 0.659793 26.1457 0.830794 26.2339 0.994794C26.3218 1.15879 26.455 1.2678 26.6332 1.3218C26.8115 1.3758 26.9827 1.35879 27.1467 1.27079C27.3108 1.18279 27.4196 1.0488 27.4734 0.870801ZM32.7469 1.6708C32.8006 1.4928 32.7835 1.3218 32.6955 1.1578C32.6073 0.993803 32.4742 0.884792 32.296 0.830792C32.1176 0.776792 31.9464 0.793794 31.7824 0.882794C31.6184 0.970794 31.5095 1.1038 31.4559 1.2818C31.4022 1.4598 31.4193 1.6308 31.5073 1.7948C31.5954 1.9598 31.7286 2.06779 31.9068 2.12179C32.0852 2.17579 32.2563 2.1588 32.4204 2.0708C32.5844 1.9828 32.6932 1.8488 32.7469 1.6708ZM38.0196 2.47079C38.0736 2.29279 38.0566 2.1208 37.9686 1.9568C37.8796 1.7928 37.7466 1.6848 37.5686 1.6308C37.3906 1.5768 37.2196 1.5948 37.0556 1.6828C36.8916 1.7708 36.7826 1.9038 36.7286 2.0818C36.6746 2.2608 36.6926 2.43179 36.7806 2.59579C36.8686 2.75979 37.0016 2.8688 37.1796 2.9218C37.3586 2.9758 37.5296 2.9588 37.6936 2.8708C37.8576 2.7818 37.9666 2.64879 38.0196 2.47079ZM43.2936 3.27079C43.3466 3.09279 43.3296 2.92179 43.2416 2.75779C43.1536 2.59379 43.0206 2.4848 42.8426 2.4308C42.6646 2.3778 42.4926 2.3948 42.3296 2.4828C42.1656 2.5708 42.0566 2.7038 42.0026 2.8818C41.9486 3.0598 41.9656 3.2318 42.0536 3.3948C42.1426 3.5588 42.2756 3.6678 42.4536 3.7218C42.6316 3.7758 42.8026 3.7588 42.9666 3.6708C43.1306 3.5818 43.2396 3.44879 43.2936 3.27079ZM48.5666 4.07181C48.6196 3.8928 48.6026 3.72181 48.5146 3.55781C48.4266 3.39481 48.2936 3.28581 48.1146 3.23181C47.9366 3.17881 47.7656 3.19581 47.6016 3.28381C47.4376 3.37181 47.3296 3.50481 47.2756 3.68281C47.2216 3.86181 47.2396 4.0328 47.3276 4.19681C47.4156 4.35981 47.5486 4.46881 47.7266 4.52281C47.9046 4.57581 48.0756 4.55881 48.2396 4.47081C48.4036 4.38281 48.5126 4.24981 48.5666 4.07181ZM53.8397 4.8708C53.8937 4.6928 53.8757 4.5218 53.7877 4.3578C53.6997 4.1938 53.5667 4.08481 53.3887 4.03181C53.2107 3.97781 53.0397 3.99481 52.8757 4.08281C52.7117 4.17181 52.6027 4.3048 52.5497 4.4828C52.4957 4.6608 52.5137 4.8318 52.6017 4.9958C52.6897 5.1598 52.8227 5.2678 53.0007 5.32181C53.1787 5.37581 53.3497 5.3578 53.5137 5.2698C53.6777 5.1818 53.7857 5.0488 53.8397 4.8708ZM24.6468 5.82181C24.7183 5.5838 24.6953 5.35581 24.578 5.13781C24.4606 4.91881 24.283 4.7738 24.0454 4.7028C23.8079 4.6308 23.5799 4.65381 23.3612 4.77081C23.1427 4.88881 22.9977 5.06581 22.9261 5.30381C22.8546 5.54081 22.8776 5.76981 22.995 5.98781C23.1123 6.20681 23.2898 6.3518 23.5274 6.4228C23.7649 6.4948 23.993 6.4718 24.2116 6.3538C24.4301 6.2368 24.5752 6.05981 24.6468 5.82181ZM29.9204 6.62181C29.9919 6.38381 29.9689 6.1558 29.8515 5.9378C29.7339 5.7188 29.5563 5.57381 29.3185 5.50181C29.0809 5.43081 28.8528 5.45381 28.6342 5.57081C28.4155 5.68881 28.2705 5.8668 28.199 6.1038C28.1275 6.3418 28.1505 6.5698 28.2681 6.7888C28.3856 7.0068 28.5632 7.15181 28.8009 7.22381C29.0385 7.29481 29.2666 7.27181 29.4853 7.15481C29.7039 7.03681 29.849 6.85981 29.9204 6.62181ZM35.1936 7.42181C35.2646 7.18481 35.2416 6.95681 35.1246 6.73781C35.0066 6.51881 34.8295 6.37381 34.592 6.30281C34.3544 6.23081 34.1263 6.25381 33.9078 6.37181C33.6892 6.48881 33.5441 6.66681 33.4726 6.90381C33.4012 7.14181 33.4241 7.36981 33.5416 7.58781C33.659 7.80681 33.8366 7.9518 34.0742 8.0238C34.3117 8.0948 34.5397 8.0718 34.7584 7.9548C34.9769 7.8368 35.1216 7.65981 35.1936 7.42181ZM40.4666 8.22281C40.5386 7.98481 40.5156 7.75681 40.3976 7.53781C40.2806 7.31981 40.1026 7.17481 39.8656 7.10281C39.6276 7.03081 39.3996 7.05381 39.1806 7.17181C38.9616 7.28881 38.8166 7.46681 38.7456 7.70381C38.6736 7.94181 38.6966 8.16981 38.8146 8.38881C38.9316 8.60681 39.1086 8.7528 39.3466 8.8238C39.5846 8.8958 39.8126 8.87281 40.0316 8.75581C40.2496 8.63781 40.3946 8.46081 40.4666 8.22281ZM45.7406 9.0238C45.8116 8.7858 45.7886 8.5578 45.6716 8.3388C45.5546 8.1198 45.3766 7.97481 45.1396 7.90281C44.9016 7.83181 44.6736 7.85481 44.4546 7.97181C44.2356 8.08881 44.0906 8.26681 44.0186 8.50381C43.9466 8.74181 43.9696 8.96981 44.0876 9.18881C44.2046 9.40781 44.3816 9.55281 44.6196 9.62481C44.8576 9.69681 45.0856 9.67381 45.3046 9.55581C45.5236 9.43881 45.6686 9.2608 45.7406 9.0238ZM51.0126 9.82281C51.0846 9.58581 51.0616 9.35782 50.9436 9.13882C50.8266 8.92082 50.6496 8.77482 50.4116 8.70382C50.1736 8.63182 49.9456 8.65482 49.7276 8.77282C49.5086 8.88982 49.3636 9.06782 49.2916 9.30482C49.2206 9.54282 49.2436 9.77082 49.3606 9.98982C49.4786 10.2078 49.6556 10.3528 49.8936 10.4248C50.1316 10.4958 50.3596 10.4738 50.5776 10.3558C50.7966 10.2388 50.9416 10.0608 51.0126 9.82281ZM21.82 10.7738C21.9095 10.4768 21.8809 10.1918 21.7342 9.91882C21.5876 9.64582 21.3658 9.46381 21.0689 9.37481C20.7721 9.28481 20.4871 9.31381 20.2139 9.46081C19.9407 9.60681 19.7593 9.82882 19.6698 10.1258C19.5804 10.4228 19.6089 10.7078 19.7554 10.9808C19.9021 11.2538 20.1239 11.4358 20.4208 11.5248C20.7176 11.6148 21.0027 11.5858 21.2759 11.4388C21.5492 11.2928 21.7305 11.0708 21.82 10.7738ZM27.0937 11.5748C27.183 11.2778 27.1544 10.9928 27.0077 10.7198C26.8609 10.4458 26.6391 10.2648 26.3422 10.1758C26.0452 10.0858 25.7601 10.1148 25.4868 10.2618C25.2136 10.4078 25.0323 10.6298 24.9429 10.9268C24.8535 11.2238 24.8821 11.5088 25.0289 11.7818C25.1756 12.0548 25.3974 12.2368 25.6944 12.3258C25.9913 12.4158 26.2764 12.3868 26.5496 12.2398C26.8228 12.0938 27.0042 11.8718 27.0937 11.5748ZM32.367 12.3748C32.4565 12.0775 32.4278 11.7921 32.281 11.5188C32.1343 11.2458 31.9125 11.0648 31.6155 10.9748C31.3185 10.8858 31.0333 10.9138 30.7601 11.0608C30.4869 11.2078 30.3055 11.4298 30.216 11.7268C30.1266 12.0238 30.1552 12.3088 30.302 12.5818C30.4487 12.8548 30.6705 13.0368 30.9675 13.1258C31.2645 13.2158 31.5497 13.1868 31.8229 13.0398C32.0962 12.8938 32.2776 12.6718 32.367 12.3748ZM37.6406 13.1738C37.7296 12.8768 37.7006 12.5918 37.5536 12.3188C37.4076 12.0458 37.1856 11.8638 36.8886 11.7748C36.5916 11.6858 36.3056 11.7138 36.0326 11.8608C35.7596 12.0078 35.5786 12.2298 35.4886 12.5268C35.3996 12.8238 35.4286 13.1088 35.5756 13.3818C35.7216 13.6558 35.9436 13.8368 36.2406 13.9258C36.538 14.0152 36.8233 13.9865 37.0966 13.8398C37.3696 13.6928 37.5506 13.4708 37.6406 13.1738ZM42.9136 13.9738C43.0026 13.6768 42.9746 13.3918 42.8276 13.1188C42.681 12.8455 42.459 12.6641 42.1616 12.5748C41.8646 12.4858 41.5796 12.5138 41.3066 12.6608C41.0326 12.8078 40.8516 13.0298 40.7626 13.3268C40.6726 13.6238 40.7016 13.9088 40.8486 14.1818C40.9953 14.4552 41.2173 14.6365 41.5146 14.7258C41.8116 14.8158 42.0966 14.7868 42.3696 14.6398C42.6426 14.4928 42.8246 14.2708 42.9136 13.9738ZM48.1856 14.7748C48.2756 14.4778 48.2466 14.1928 48.1006 13.9198C47.9536 13.6468 47.7316 13.4658 47.4346 13.3758C47.1376 13.2868 46.8526 13.3148 46.5796 13.4618C46.3066 13.6088 46.1246 13.8308 46.0356 14.1278C45.9466 14.4248 45.9746 14.7098 46.1216 14.9828C46.2683 15.2555 46.4903 15.4368 46.7876 15.5268C47.0846 15.6158 47.3696 15.5868 47.6426 15.4408C47.9156 15.2938 48.0966 15.0718 48.1856 14.7748ZM19.0448 15.2018C19.0269 15.0248 18.9757 14.8568 18.8912 14.6988C18.8065 14.5418 18.695 14.4058 18.5566 14.2928C18.418 14.1798 18.2632 14.0978 18.092 14.0458C17.9208 13.9938 17.7463 13.9778 17.5683 13.9948C17.3903 14.0128 17.2226 14.0648 17.0651 14.1488C16.9075 14.2338 16.7721 14.3448 16.6589 14.4838C16.5457 14.6218 16.4633 14.7768 16.4118 14.9478C16.3601 15.1188 16.3432 15.2938 16.3611 15.4718C16.379 15.6498 16.4302 15.8178 16.5147 15.9748C16.5994 16.1328 16.7109 16.2678 16.8493 16.3808C16.9879 16.4938 17.1427 16.5768 17.3139 16.6288C17.4852 16.6798 17.6598 16.6968 17.8376 16.6788C18.0156 16.6608 18.1834 16.6098 18.341 16.5248C18.4985 16.4408 18.6338 16.3288 18.747 16.1908C18.8602 16.0518 18.9426 15.8978 18.9941 15.7258C19.0458 15.5548 19.0627 15.3798 19.0448 15.2018ZM24.2671 16.5258C24.3743 16.1688 24.3398 15.8268 24.1635 15.4988C23.9874 15.1708 23.7212 14.9538 23.3647 14.8458C23.0082 14.7388 22.666 14.7738 22.3382 14.9498C22.0102 15.1258 21.7926 15.3918 21.6852 15.7488C21.578 16.1048 21.6125 16.4468 21.7886 16.7748C21.9648 17.1028 22.2311 17.3208 22.5876 17.4278C22.9441 17.5348 23.2863 17.5008 23.6141 17.3248C23.9421 17.1478 24.1597 16.8818 24.2671 16.5258ZM29.5906 16.8028C29.5728 16.6248 29.5215 16.4578 29.4368 16.2998C29.3523 16.1428 29.2408 16.0078 29.1024 15.8938C28.964 15.7808 28.8093 15.6988 28.6382 15.6478C28.467 15.5958 28.2925 15.5788 28.1147 15.5968C27.937 15.6148 27.7693 15.6662 27.6118 15.7508C27.4545 15.8358 27.3192 15.9468 27.2061 16.0848C27.093 16.2238 27.0108 16.3788 26.9593 16.5498C26.9077 16.7208 26.8909 16.8948 26.9088 17.0728C26.9268 17.2508 26.9781 17.4188 27.0626 17.5758C27.1471 17.7328 27.2586 17.8688 27.397 17.9818C27.5354 18.0948 27.6902 18.1768 27.8614 18.2288C28.0325 18.2798 28.2069 18.2968 28.3848 18.2788C28.5626 18.2608 28.7302 18.2095 28.8876 18.1248C29.0451 18.0408 29.1804 17.9288 29.2934 17.7908C29.4065 17.6518 29.4888 17.4978 29.5402 17.3268C29.5917 17.1548 29.6085 16.9808 29.5906 16.8028ZM34.8135 18.1258C34.9207 17.7698 34.8862 17.4278 34.7099 17.0998C34.5338 16.7718 34.2676 16.5538 33.9111 16.4468C33.5547 16.3398 33.2126 16.3738 32.8848 16.5508C32.5568 16.7268 32.3392 16.9928 32.232 17.3488C32.1248 17.7058 32.1593 18.0478 32.3355 18.3758C32.5118 18.7038 32.7781 18.9208 33.1345 19.0278C33.4909 19.1358 33.8331 19.1008 34.1609 18.9248C34.4887 18.7488 34.7062 18.4828 34.8135 18.1258ZM40.1376 18.4028C40.1196 18.2248 40.0686 18.0568 39.9846 17.8998C39.8996 17.7418 39.7876 17.6068 39.6496 17.4938C39.5106 17.3808 39.3566 17.2978 39.1846 17.2468C39.0136 17.1948 38.8396 17.1778 38.6616 17.1958C38.4836 17.2138 38.3156 17.2658 38.1576 17.3498C38.0006 17.4348 37.8656 17.5458 37.7516 17.6848C37.6386 17.8228 37.5566 17.9778 37.5056 18.1488C37.4536 18.3208 37.4366 18.4948 37.4546 18.6728C37.4726 18.8508 37.5236 19.0188 37.6086 19.1758C37.6936 19.3338 37.8046 19.4688 37.9426 19.5818C38.0816 19.6948 38.2366 19.7778 38.4076 19.8288C38.5786 19.8808 38.7536 19.8978 38.9316 19.8798C39.1096 19.8618 39.2766 19.8098 39.4346 19.7258C39.5916 19.6408 39.7276 19.5298 39.8406 19.3908C39.9536 19.2528 40.0356 19.0978 40.0876 18.9268C40.139 18.7555 40.1556 18.5808 40.1376 18.4028ZM45.4106 19.2018C45.3926 19.0248 45.3416 18.8568 45.2566 18.6988C45.1726 18.5418 45.0606 18.4068 44.9226 18.2938C44.7836 18.1798 44.6296 18.0978 44.4576 18.0468C44.2866 17.9948 44.1126 17.9778 43.9346 17.9958C43.7566 18.0138 43.589 18.0652 43.4316 18.1498C43.2746 18.2348 43.1386 18.3458 43.0256 18.4848C42.9126 18.6228 42.8306 18.7778 42.7786 18.9488C42.7276 19.1198 42.7106 19.2948 42.7286 19.4728C42.7466 19.6508 42.7976 19.8178 42.8826 19.9758C42.9666 20.1328 43.0786 20.2678 43.2166 20.3808C43.3556 20.4948 43.5096 20.5768 43.6806 20.6278C43.8526 20.6798 44.0266 20.6968 44.2046 20.6788C44.3826 20.6608 44.5506 20.6098 44.7076 20.5248C44.8656 20.4398 45.0006 20.3288 45.1136 20.1908C45.2266 20.0518 45.3086 19.8968 45.3606 19.7258C45.412 19.5545 45.4286 19.3798 45.4106 19.2018ZM16.2256 20.0668C16.2048 19.8588 16.145 19.6638 16.0463 19.4798C15.9477 19.2958 15.8177 19.1388 15.6562 19.0068C15.4948 18.8748 15.3143 18.7788 15.1147 18.7178C14.9151 18.6578 14.7115 18.6388 14.5039 18.6588C14.2965 18.6798 14.101 18.7398 13.9174 18.8388C13.7336 18.9368 13.5758 19.0668 13.4438 19.2288C13.3119 19.3898 13.2158 19.5708 13.1557 19.7698C13.0956 19.9698 13.0759 20.1738 13.0968 20.3808C13.1176 20.5888 13.1773 20.7838 13.276 20.9678C13.3746 21.1508 13.5047 21.3088 13.6661 21.4408C13.8276 21.5728 14.0081 21.6688 14.2078 21.7288C14.4073 21.7888 14.6109 21.8088 14.8184 21.7878C15.0258 21.7668 15.2213 21.7078 15.405 21.6088C15.5887 21.5098 15.7465 21.3798 15.8784 21.2188C16.0104 21.0568 16.1065 20.8768 16.1666 20.6768C16.2268 20.4778 16.2464 20.2738 16.2256 20.0668ZM21.4998 20.8668C21.4789 20.6598 21.4191 20.4638 21.3205 20.2798C21.2218 20.0958 21.0917 19.9388 20.9302 19.8068C20.7688 19.6748 20.5882 19.5788 20.3884 19.5188C20.1887 19.4578 19.9851 19.4388 19.7776 19.4598C19.5702 19.4798 19.3746 19.5398 19.1908 19.6388C19.0071 19.7378 18.8492 19.8678 18.7172 20.0288C18.5853 20.1908 18.4893 20.3708 18.4292 20.5708C18.3691 20.7708 18.3494 20.9738 18.3702 21.1818C18.3911 21.3888 18.4508 21.5848 18.5495 21.7688C18.6483 21.9518 18.7783 22.1098 18.9398 22.2418C19.1012 22.3738 19.2818 22.4698 19.4814 22.5298C19.6812 22.5898 19.8848 22.6098 20.0922 22.5888C20.2998 22.5678 20.4954 22.5078 20.6792 22.4098C20.8628 22.3108 21.0206 22.1808 21.1526 22.0198C21.2846 21.8578 21.3807 21.6778 21.4408 21.4778C21.501 21.2778 21.5206 21.0738 21.4998 20.8668ZM26.7729 21.6668C26.752 21.4588 26.6922 21.2638 26.5936 21.0798C26.4949 20.8968 26.3647 20.7388 26.2032 20.6068C26.0417 20.4748 25.8612 20.3788 25.6615 20.3188C25.4617 20.2582 25.2581 20.2385 25.0507 20.2598C24.8432 20.2808 24.6475 20.3398 24.4638 20.4388C24.2801 20.5375 24.1223 20.6675 23.9903 20.8288C23.8583 20.9908 23.7623 21.1708 23.7023 21.3708C23.6422 21.5708 23.6225 21.7748 23.6433 21.9818C23.6643 22.1888 23.7241 22.3848 23.8228 22.5688C23.9214 22.7528 24.0515 22.9098 24.2131 23.0418C24.3745 23.1738 24.5551 23.2698 24.7547 23.3298C24.9545 23.3898 25.1581 23.4095 25.3655 23.3888C25.5731 23.3678 25.7687 23.3088 25.9525 23.2098C26.1361 23.1108 26.2939 22.9808 26.4259 22.8198C26.5579 22.6578 26.6539 22.4768 26.7139 22.2778C26.7741 22.0778 26.7938 21.8748 26.7729 21.6668ZM32.046 22.4668C32.0252 22.2598 31.9654 22.0638 31.8667 21.8808C31.7681 21.6968 31.6381 21.5388 31.4766 21.4068C31.3152 21.2748 31.1346 21.1788 30.935 21.1188C30.7353 21.0588 30.5318 21.0388 30.3244 21.0598C30.1168 21.0808 29.9212 21.1398 29.7376 21.2388C29.5539 21.3378 29.396 21.4678 29.264 21.6288C29.132 21.7898 29.0359 21.9708 28.9758 22.1708C28.9156 22.3698 28.896 22.5738 28.9168 22.7808C28.9376 22.9888 28.9973 23.1838 29.0959 23.3678C29.1945 23.5518 29.3246 23.7098 29.486 23.8418C29.6475 23.9738 29.828 24.0698 30.0277 24.1298C30.2273 24.1898 30.4309 24.2098 30.6385 24.1888C30.8459 24.1682 31.0415 24.1085 31.2252 24.0098C31.4089 23.9108 31.5667 23.7808 31.6987 23.6198C31.8307 23.4578 31.9267 23.2778 31.9869 23.0778C32.0471 22.8778 32.0669 22.6748 32.046 22.4668ZM37.3196 23.2668C37.2986 23.0598 37.2386 22.8638 37.1396 22.6798C36.9346 22.2978 36.6236 22.0438 36.2076 21.9188C35.7923 21.7935 35.3933 21.8338 35.0106 22.0398C34.8267 22.1378 34.669 22.2688 34.5371 22.4298C34.4051 22.5918 34.3091 22.7718 34.2491 22.9718C34.1891 23.1708 34.1695 23.3748 34.1903 23.5828C34.2112 23.7898 34.2711 23.9858 34.3698 24.1688C34.5754 24.5518 34.8861 24.8058 35.3016 24.9308C35.7176 25.0555 36.117 25.0152 36.4996 24.8098C36.6826 24.7108 36.8406 24.5808 36.9726 24.4188C37.1046 24.2578 37.2006 24.0768 37.2606 23.8778C37.3206 23.6778 37.3406 23.4748 37.3196 23.2668ZM69.4707 24.5268C69.5617 24.3058 69.6077 24.0768 69.6077 23.8388C69.6077 23.6008 69.5617 23.3718 69.4707 23.1508C69.3797 22.9308 69.2497 22.7368 69.0817 22.5678C68.913 22.3998 68.7187 22.2702 68.4987 22.1788C68.2787 22.0878 68.0487 22.0418 67.8107 22.0418C67.5727 22.0418 67.3437 22.0878 67.1227 22.1788C66.9027 22.2702 66.7084 22.3998 66.5397 22.5678C66.3717 22.7368 66.2417 22.9308 66.1507 23.1508C66.0597 23.3718 66.0137 23.6008 66.0137 23.8388C66.0137 24.0768 66.0597 24.3058 66.1507 24.5268C66.2417 24.7468 66.3717 24.9408 66.5397 25.1098C66.7084 25.2778 66.9027 25.4075 67.1227 25.4988C67.3437 25.5898 67.5727 25.6358 67.8107 25.6358C68.0487 25.6358 68.2787 25.5898 68.4987 25.4988C68.7187 25.4075 68.913 25.2778 69.0817 25.1098C69.2497 24.9408 69.3797 24.7468 69.4707 24.5268ZM42.5926 24.0678C42.5716 23.8608 42.5116 23.6648 42.4136 23.4808C42.3146 23.2978 42.1846 23.1398 42.0226 23.0078C41.8616 22.8758 41.6806 22.7798 41.4816 22.7198C41.2816 22.6598 41.0786 22.6398 40.8706 22.6608C40.6636 22.6818 40.4676 22.7408 40.2836 22.8398C40.1006 22.9388 39.9426 23.0688 39.8106 23.2298C39.6786 23.3918 39.5826 23.5718 39.5226 23.7718C39.4626 23.9708 39.4426 24.1748 39.4636 24.3818C39.4846 24.5898 39.5446 24.7848 39.6426 24.9688C39.7416 25.1528 39.8716 25.3108 40.0326 25.4428C40.1946 25.5748 40.3746 25.6708 40.5746 25.7308C40.7736 25.7908 40.9776 25.8098 41.1846 25.7898C41.3926 25.7688 41.5876 25.7088 41.7716 25.6098C41.9556 25.5112 42.1136 25.3812 42.2456 25.2198C42.3776 25.0588 42.4736 24.8778 42.5336 24.6788C42.5936 24.4788 42.6126 24.2748 42.5926 24.0678ZM13.3411 25.6288C13.4842 25.1538 13.4383 24.6978 13.2035 24.2608C13.0907 24.0508 12.9421 23.8698 12.7575 23.7188C12.573 23.5688 12.3667 23.4588 12.1385 23.3898C11.9103 23.3218 11.6776 23.2988 11.4405 23.3228C11.2034 23.3468 10.9799 23.4148 10.7699 23.5278C10.3328 23.7628 10.0427 24.1178 9.89958 24.5928C9.75648 25.0678 9.80238 25.5238 10.0372 25.9608C10.15 26.1708 10.2987 26.3518 10.4832 26.5028C10.6677 26.6528 10.8741 26.7628 11.1023 26.8318C11.3305 26.8998 11.5631 26.9228 11.8002 26.8988C12.0373 26.8748 12.2609 26.8068 12.4708 26.6938C12.908 26.4588 13.1981 26.1038 13.3411 25.6288ZM18.6814 25.7318C18.6576 25.4948 18.5894 25.2718 18.4767 25.0618C18.3639 24.8518 18.2154 24.6708 18.031 24.5198C17.8465 24.3688 17.6402 24.2598 17.4121 24.1908C17.1838 24.1218 16.9511 24.0988 16.714 24.1228C16.4769 24.1468 16.2534 24.2148 16.0435 24.3278C15.8335 24.4398 15.653 24.5888 15.502 24.7738C15.3512 24.9578 15.2414 25.1638 15.1726 25.3918C15.1038 25.6208 15.0813 25.8528 15.1049 26.0898C15.1287 26.3268 15.1969 26.5508 15.3096 26.7608C15.4224 26.9708 15.5709 27.1508 15.7553 27.3018C15.9398 27.4528 16.1461 27.5628 16.3742 27.6318C16.6024 27.7008 16.835 27.7228 17.0721 27.6988C17.3092 27.6758 17.5328 27.6068 17.7428 27.4948C17.9528 27.3818 18.1332 27.2338 18.2841 27.0488C18.4351 26.8648 18.5449 26.6578 18.6137 26.4298C18.6825 26.2018 18.705 25.9688 18.6814 25.7318ZM23.8875 27.2298C24.0306 26.7548 23.9848 26.2989 23.75 25.8609C23.5153 25.4242 23.1604 25.1342 22.6852 24.9908C22.2101 24.8478 21.7539 24.8928 21.3166 25.1278C20.8795 25.3628 20.5893 25.7179 20.4461 26.1929C20.303 26.6679 20.3488 27.1248 20.5834 27.5618C20.8182 27.9988 21.1732 28.2889 21.6483 28.4319C22.1235 28.5749 22.5797 28.5298 23.0168 28.2948C23.4541 28.0598 23.7443 27.7048 23.8875 27.2298ZM29.2281 27.3318C29.2043 27.0948 29.1361 26.8718 29.0235 26.6618C28.9107 26.4518 28.7621 26.2709 28.5776 26.1199C28.3931 25.9699 28.1868 25.8598 27.9587 25.7908C27.7304 25.7218 27.4977 25.6998 27.2606 25.7238C27.0235 25.7468 26.8 25.8159 26.5901 25.9279C26.3801 26.0409 26.1997 26.1899 26.0488 26.3739C25.8979 26.5585 25.7881 26.7648 25.7194 26.9928C25.6507 27.2215 25.6283 27.4542 25.6521 27.6909C25.6759 27.9279 25.7441 28.1518 25.8569 28.3618C25.9696 28.5718 26.1181 28.7518 26.3026 28.9028C26.4871 29.0538 26.6935 29.1639 26.9217 29.2319C27.1499 29.3009 27.3825 29.3238 27.6196 29.2998C27.8567 29.2758 28.0803 29.2078 28.2903 29.0948C28.5002 28.9818 28.6805 28.8338 28.8314 28.6488C28.9823 28.4648 29.0921 28.2578 29.1608 28.0298C29.2296 27.8018 29.252 27.5688 29.2281 27.3318ZM66.2707 28.7919C66.3617 28.5719 66.4077 28.3428 66.4077 28.1048C66.4077 27.8658 66.3617 27.6369 66.2707 27.4169C66.1797 27.1969 66.0497 27.0018 65.8807 26.8338C65.7127 26.6652 65.5183 26.5355 65.2977 26.4449C65.0777 26.3529 64.8487 26.3078 64.6107 26.3078C64.3717 26.3078 64.1427 26.3529 63.9227 26.4449C63.7027 26.5355 63.5083 26.6652 63.3397 26.8338C63.1707 27.0018 63.0417 27.1969 62.9497 27.4169C62.8587 27.6369 62.8137 27.8658 62.8137 28.1048C62.8137 28.3428 62.859 28.5719 62.9497 28.7919C63.0417 29.0129 63.1707 29.2069 63.3397 29.3759C63.5087 29.5439 63.7027 29.6738 63.9227 29.7648C64.1427 29.8558 64.3717 29.9019 64.6107 29.9019C64.8487 29.9019 65.0777 29.8558 65.2977 29.7648C65.5177 29.6738 65.7127 29.5439 65.8807 29.3759C66.0497 29.2069 66.1797 29.0129 66.2707 28.7919ZM34.5016 28.1318C34.4778 27.8948 34.4096 27.6718 34.2969 27.4618C34.1842 27.2518 34.0355 27.0708 33.851 26.9208C33.6666 26.7698 33.4602 26.6598 33.2319 26.5908C33.0038 26.5218 32.7712 26.4998 32.5341 26.5238C32.2969 26.5478 32.0734 26.6158 31.8634 26.7278C31.6535 26.8408 31.4731 26.9898 31.3223 27.1738C31.1714 27.3588 31.0616 27.5648 30.9928 27.7928C30.9241 28.0215 30.9017 28.2542 30.9256 28.4908C30.9493 28.7278 31.0176 28.9518 31.1302 29.1618C31.365 29.5992 31.7199 29.8895 32.195 30.0328C32.6703 30.1758 33.1264 30.1298 33.5636 29.8948C33.7736 29.7818 33.954 29.6338 34.1049 29.4488C34.2557 29.2648 34.3655 29.0578 34.4343 28.8298C34.503 28.6018 34.5254 28.3692 34.5016 28.1318ZM72.1297 29.4319C72.2097 29.2392 72.2497 29.0389 72.2497 28.8309C72.2497 28.6219 72.2097 28.4208 72.1297 28.2288C72.0497 28.0358 71.9367 27.8659 71.7887 27.7189C71.6417 27.5709 71.4717 27.4578 71.2787 27.3778C71.086 27.2978 70.8854 27.2578 70.6767 27.2578C70.4687 27.2578 70.2677 27.2978 70.0747 27.3778C69.8827 27.4578 69.7127 27.5715 69.5647 27.7189C69.4174 27.8662 69.3037 28.0362 69.2237 28.2288C69.1447 28.4208 69.1047 28.6219 69.1047 28.8309C69.1047 29.0389 69.1447 29.2399 69.2237 29.4319C69.3037 29.6245 69.4174 29.7949 69.5647 29.9429C69.7127 30.0902 69.8827 30.2035 70.0747 30.2828C70.2677 30.3628 70.4687 30.4028 70.6767 30.4028C70.8854 30.4028 71.086 30.3628 71.2787 30.2828C71.4717 30.2038 71.6417 30.0899 71.7887 29.9429C71.9367 29.7949 72.0497 29.6249 72.1297 29.4319ZM39.7746 28.9319C39.7506 28.6949 39.6816 28.4719 39.5696 28.2619C39.4566 28.0519 39.3076 27.8719 39.1236 27.7209C38.9386 27.5699 38.7326 27.4598 38.5046 27.3918C38.2766 27.3228 38.0436 27.3008 37.8066 27.3238C37.5696 27.3478 37.3466 27.4169 37.1366 27.5289C36.6996 27.7639 36.4096 28.1189 36.2666 28.5939C36.1236 29.0689 36.1696 29.5248 36.4036 29.9618C36.5166 30.1718 36.6656 30.3518 36.8496 30.5028C37.0346 30.6538 37.2406 30.7638 37.4686 30.8318C37.6966 30.9008 37.9296 30.9229 38.1666 30.8999C38.4036 30.8759 38.6266 30.8069 38.8366 30.6949C39.0466 30.5819 39.2266 30.4329 39.3776 30.2489C39.5283 30.0642 39.638 29.8578 39.7066 29.6298C39.7753 29.4018 39.798 29.1692 39.7746 28.9319ZM63.0707 33.0599C63.1617 32.8389 63.2077 32.6099 63.2077 32.3719C63.2077 32.1339 63.1617 31.9038 63.0707 31.6838C62.9797 31.4638 62.8497 31.2699 62.6807 31.1009C62.5127 30.9329 62.3177 30.8028 62.0977 30.7118C61.8777 30.6198 61.6487 30.5749 61.4097 30.5749C61.1717 30.5749 60.9427 30.6198 60.7227 30.7118C60.5027 30.8028 60.3077 30.9329 60.1397 31.1009C59.9707 31.2699 59.8407 31.4638 59.7497 31.6838C59.6583 31.9038 59.6127 32.1332 59.6127 32.3719C59.6127 32.6099 59.6587 32.8389 59.7497 33.0599C59.841 33.2799 59.971 33.4742 60.1397 33.6429C60.3077 33.8109 60.5027 33.9409 60.7227 34.0319C60.9427 34.1229 61.1717 34.1688 61.4097 34.1688C61.6487 34.1688 61.8777 34.1229 62.0977 34.0319C62.3177 33.9409 62.5127 33.8109 62.6807 33.6429C62.8497 33.4739 62.9797 33.2799 63.0707 33.0599ZM68.9297 33.6989C69.0097 33.5069 69.0497 33.3059 69.0497 33.0969C69.0497 32.8882 69.0097 32.6879 68.9297 32.4959C68.8497 32.3029 68.7367 32.1329 68.5887 31.9849C68.4413 31.8375 68.2714 31.7239 68.0787 31.6439C67.8857 31.5639 67.6857 31.5239 67.4767 31.5239C67.2677 31.5239 67.0677 31.5639 66.8747 31.6439C66.6817 31.7239 66.5117 31.8379 66.3647 31.9849C66.2167 32.1329 66.1027 32.3029 66.0237 32.4959C65.9437 32.6879 65.9037 32.8882 65.9037 33.0969C65.9037 33.3059 65.9437 33.5069 66.0237 33.6989C66.1027 33.8919 66.2167 34.0619 66.3647 34.2099C66.5117 34.3569 66.6817 34.4709 66.8747 34.5509C67.0673 34.6302 67.268 34.6699 67.4767 34.6699C67.6847 34.6699 67.8857 34.6309 68.0787 34.5509C68.2714 34.4709 68.4413 34.3572 68.5887 34.2099C68.736 34.0625 68.8497 33.8922 68.9297 33.6989ZM74.7877 34.3379C74.8557 34.1729 74.8907 34.0008 74.8907 33.8218C74.8907 33.6438 74.8557 33.4719 74.7877 33.3069C74.7187 33.1419 74.6217 32.9959 74.4957 32.8689C74.369 32.7429 74.2233 32.6455 74.0587 32.5769C73.8927 32.5089 73.7217 32.4748 73.5427 32.4748C73.3637 32.4748 73.1917 32.5089 73.0267 32.5769C72.862 32.6455 72.7164 32.7429 72.5897 32.8689C72.4637 32.9959 72.3657 33.1419 72.2977 33.3069C72.2287 33.4719 72.1947 33.6438 72.1947 33.8218C72.1947 34.0008 72.2287 34.1729 72.2977 34.3379C72.3657 34.5029 72.4637 34.6489 72.5897 34.7749C72.7157 34.9019 72.8617 34.9989 73.0267 35.0669C73.1917 35.1359 73.3637 35.1699 73.5427 35.1699C73.7217 35.1699 73.8927 35.1359 74.0587 35.0669C74.2237 34.9989 74.3687 34.9019 74.4957 34.7749C74.6217 34.6489 74.7187 34.5029 74.7877 34.3379ZM59.8707 37.3269C59.9613 37.1062 60.0067 36.8769 60.0067 36.6389C60.0067 36.4009 59.9613 36.1715 59.8707 35.9509C59.7787 35.7309 59.6497 35.5369 59.4807 35.3679C59.3127 35.1999 59.1177 35.0699 58.8977 34.9789C58.6777 34.8879 58.4487 34.8419 58.2097 34.8419C57.9717 34.8419 57.7427 34.8879 57.5227 34.9789C57.3027 35.0699 57.1077 35.1999 56.9397 35.3679C56.7707 35.5369 56.6417 35.7309 56.5497 35.9509C56.459 36.1715 56.4137 36.4009 56.4137 36.6389C56.4137 36.8769 56.459 37.1062 56.5497 37.3269C56.6417 37.5469 56.7707 37.7409 56.9397 37.9099C57.1077 38.0779 57.3027 38.2079 57.5227 38.2989C57.7427 38.3899 57.9717 38.4359 58.2097 38.4359C58.4487 38.4359 58.6777 38.3899 58.8977 38.2989C59.1177 38.2079 59.3127 38.0779 59.4807 37.9099C59.6497 37.7409 59.7787 37.5469 59.8707 37.3269ZM65.7297 37.9659C65.8097 37.7729 65.8497 37.5729 65.8497 37.3639C65.8497 37.1552 65.8097 36.9545 65.7297 36.7619C65.6497 36.5699 65.5357 36.3999 65.3887 36.2519C65.2407 36.1039 65.0707 35.9909 64.8787 35.9109C64.686 35.8309 64.4853 35.7909 64.2767 35.7909C64.0677 35.7909 63.8677 35.8309 63.6747 35.9109C63.482 35.9909 63.312 36.1045 63.1647 36.2519C63.0167 36.3992 62.903 36.5692 62.8237 36.7619C62.7437 36.9549 62.7037 37.1559 62.7037 37.3639C62.7037 37.5729 62.7437 37.7729 62.8237 37.9659C62.903 38.1585 63.0167 38.3285 63.1647 38.4759C63.312 38.6239 63.482 38.7375 63.6747 38.8169C63.8677 38.8969 64.0677 38.9369 64.2767 38.9369C64.4853 38.9369 64.686 38.8969 64.8787 38.8169C65.0707 38.7369 65.2407 38.6239 65.3887 38.4759C65.5357 38.3289 65.6497 38.1589 65.7297 37.9659ZM71.5877 38.6049C71.6557 38.4399 71.6897 38.2679 71.6897 38.0899C71.6897 37.9109 71.6557 37.7389 71.5877 37.5739C71.5187 37.4089 71.4217 37.2629 71.2957 37.1369C71.1687 37.0099 71.0237 36.9129 70.8587 36.8439C70.6927 36.7759 70.5217 36.7419 70.3427 36.7419C70.1637 36.7419 69.9917 36.7759 69.8267 36.8439C69.6617 36.9129 69.5157 37.0099 69.3897 37.1369C69.263 37.2629 69.1657 37.4085 69.0977 37.5739C69.0287 37.7389 68.9947 37.9109 68.9947 38.0899C68.9947 38.2679 69.0287 38.4399 69.0977 38.6049C69.1657 38.7702 69.263 38.9162 69.3897 39.0429C69.5157 39.1689 69.6617 39.2659 69.8267 39.3349C69.9917 39.4029 70.1637 39.4369 70.3427 39.4369C70.5217 39.4369 70.6927 39.4029 70.8587 39.3349C71.0237 39.2659 71.1687 39.1689 71.2957 39.0429C71.4217 38.9159 71.5187 38.7699 71.5877 38.6049ZM77.2027 39.6079C77.4217 39.3889 77.5317 39.1249 77.5317 38.8139C77.5317 38.5039 77.4217 38.2399 77.2027 38.0199C76.9837 37.8009 76.7187 37.6919 76.4087 37.6919C76.0987 37.6919 75.8337 37.8009 75.6147 38.0199C75.3957 38.2399 75.2857 38.5039 75.2857 38.8139C75.2857 39.1249 75.3957 39.3889 75.6147 39.6079C75.8337 39.8279 76.0987 39.9369 76.4087 39.9369C76.7187 39.9369 76.9837 39.8279 77.2027 39.6079ZM56.6697 41.5939C56.7607 41.3739 56.8067 41.1449 56.8067 40.9059C56.8067 40.6679 56.761 40.4389 56.6697 40.2189C56.5783 39.9982 56.4487 39.8039 56.2807 39.6359C56.1117 39.4669 55.9177 39.3369 55.6977 39.2459C55.4777 39.1549 55.2477 39.1089 55.0097 39.1089C54.7717 39.1089 54.5427 39.1549 54.3217 39.2459C54.1017 39.3369 53.9077 39.4669 53.7387 39.6359C53.5707 39.8039 53.441 39.9982 53.3497 40.2189C53.2583 40.4389 53.2127 40.6679 53.2127 40.9059C53.2127 41.1449 53.2587 41.3739 53.3497 41.5939C53.441 41.8139 53.5707 42.0082 53.7387 42.1769C53.9077 42.3449 54.1017 42.4749 54.3217 42.5659C54.5427 42.6579 54.7717 42.7029 55.0097 42.7029C55.2477 42.7029 55.4777 42.6579 55.6977 42.5659C55.9177 42.4749 56.1117 42.3449 56.2807 42.1769C56.4487 42.0082 56.5783 41.8139 56.6697 41.5939ZM62.5287 42.2329C62.6087 42.0399 62.6487 41.8389 62.6487 41.6309C62.6487 41.4219 62.6087 41.2219 62.5287 41.0289C62.4487 40.8362 62.335 40.6662 62.1877 40.5189C62.0403 40.3715 61.8703 40.2579 61.6777 40.1779C61.4857 40.0979 61.2847 40.0579 61.0757 40.0579C60.8677 40.0579 60.6667 40.0979 60.4747 40.1779C60.2817 40.2579 60.1117 40.3709 59.9637 40.5189C59.8167 40.6659 59.7027 40.8359 59.6237 41.0289C59.5437 41.2219 59.5037 41.4219 59.5037 41.6309C59.5037 41.8395 59.5437 42.0402 59.6237 42.2329C59.7027 42.4249 59.8167 42.5949 59.9637 42.7429C60.1117 42.8899 60.2817 43.0039 60.4747 43.0839C60.6667 43.1629 60.8677 43.2029 61.0757 43.2029C61.2847 43.2029 61.4857 43.1629 61.6777 43.0839C61.8707 43.0039 62.0407 42.8899 62.1877 42.7429C62.3357 42.5949 62.4487 42.4249 62.5287 42.2329ZM68.3877 42.8719C68.4557 42.7069 68.4907 42.5349 68.4907 42.3569C68.4907 42.1779 68.4557 42.0059 68.3877 41.8409C68.3197 41.6759 68.2217 41.5299 68.0957 41.4029C67.969 41.2769 67.8233 41.1795 67.6587 41.1109C67.4927 41.0429 67.3207 41.0089 67.1427 41.0089C66.9637 41.0089 66.7917 41.0429 66.6267 41.1109C66.4613 41.1795 66.3157 41.2769 66.1897 41.4029C66.0627 41.5299 65.9657 41.6759 65.8977 41.8409C65.8287 42.0059 65.7947 42.1779 65.7947 42.3569C65.7947 42.5349 65.8287 42.7069 65.8977 42.8719C65.9657 43.0379 66.0627 43.1829 66.1897 43.3099C66.3157 43.4359 66.4613 43.5332 66.6267 43.6019C66.7917 43.6699 66.9637 43.7039 67.1427 43.7039C67.3207 43.7039 67.4927 43.6699 67.6587 43.6019C67.8233 43.5332 67.969 43.4359 68.0957 43.3099C68.2217 43.1829 68.3197 43.0379 68.3877 42.8719ZM74.0027 43.8749C74.2217 43.6559 74.3317 43.3909 74.3317 43.0809C74.3317 42.7709 74.2217 42.5059 74.0027 42.2869C73.7837 42.0679 73.5187 41.9579 73.2087 41.9579C72.8987 41.9579 72.6337 42.0679 72.4147 42.2869C72.1957 42.5059 72.0857 42.7709 72.0857 43.0809C72.0857 43.3909 72.1957 43.6559 72.4147 43.8749C72.6337 44.0949 72.8987 44.2039 73.2087 44.2039C73.5187 44.2039 73.7837 44.0949 74.0027 43.8749ZM79.9097 44.4409C80.0857 44.2659 80.1727 44.0539 80.1727 43.8059C80.1727 43.5579 80.0857 43.3459 79.9097 43.1709C79.7347 42.9949 79.5227 42.9079 79.2747 42.9079C79.0267 42.9079 78.8147 42.9949 78.6397 43.1709C78.4637 43.3459 78.3767 43.5579 78.3767 43.8059C78.3767 44.0539 78.4637 44.2659 78.6397 44.4409C78.8147 44.6159 79.0267 44.7039 79.2747 44.7039C79.5227 44.7039 79.7347 44.6159 79.9097 44.4409ZM53.4697 45.8609C53.561 45.6402 53.6067 45.4109 53.6067 45.1729C53.6067 44.9342 53.561 44.7049 53.4697 44.4849C53.3787 44.2649 53.2487 44.0709 53.0807 43.9019C52.9117 43.7339 52.7177 43.6039 52.4977 43.5119C52.2777 43.4209 52.0477 43.3759 51.8097 43.3759C51.5717 43.3759 51.3417 43.4209 51.1217 43.5119C50.9017 43.6039 50.7077 43.7339 50.5387 43.9019C50.3707 44.0709 50.2407 44.2649 50.1497 44.4849C50.0577 44.7049 50.0127 44.9349 50.0127 45.1729C50.0127 45.4109 50.0577 45.6399 50.1497 45.8609C50.2407 46.0809 50.3707 46.2749 50.5387 46.4439C50.7077 46.6119 50.9017 46.7419 51.1217 46.8329C51.3417 46.9249 51.5717 46.9699 51.8097 46.9699C52.0477 46.9699 52.2777 46.9249 52.4977 46.8329C52.7177 46.7419 52.9117 46.6119 53.0807 46.4439C53.2487 46.2749 53.3787 46.0809 53.4697 45.8609ZM59.3287 46.4999C59.4087 46.3069 59.4487 46.1069 59.4487 45.8979C59.4487 45.6899 59.4087 45.4889 59.3287 45.2969C59.2487 45.1039 59.1357 44.9339 58.9877 44.7859C58.8407 44.6389 58.6707 44.5249 58.4777 44.4449C58.2847 44.3659 58.0847 44.3259 57.8757 44.3259C57.6677 44.3259 57.4667 44.3659 57.2737 44.4449C57.0817 44.5249 56.9117 44.6389 56.7637 44.7859C56.6167 44.9339 56.5027 45.1039 56.4227 45.2969C56.3427 45.4889 56.3037 45.6899 56.3037 45.8979C56.3037 46.1069 56.3427 46.3069 56.4227 46.4999C56.5027 46.6925 56.6163 46.8626 56.7637 47.0099C56.911 47.1579 57.081 47.2715 57.2737 47.3509C57.4667 47.4309 57.6677 47.4709 57.8757 47.4709C58.0847 47.4709 58.2847 47.4309 58.4777 47.3509C58.6703 47.2715 58.8403 47.1579 58.9877 47.0099C59.135 46.8626 59.2487 46.6925 59.3287 46.4999ZM65.1877 47.1389C65.2557 46.9739 65.2907 46.8019 65.2907 46.6229C65.2907 46.4449 65.2557 46.2729 65.1877 46.1079C65.1197 45.9419 65.0217 45.7969 64.8957 45.6699C64.769 45.5439 64.6233 45.4466 64.4587 45.3779C64.2927 45.3099 64.1207 45.2749 63.9427 45.2749C63.7637 45.2749 63.5917 45.3099 63.4267 45.3779C63.2613 45.4466 63.1157 45.5439 62.9897 45.6699C62.8627 45.7969 62.7657 45.9419 62.6977 46.1079C62.6287 46.2729 62.5947 46.4449 62.5947 46.6229C62.5947 46.8019 62.6287 46.9739 62.6977 47.1389C62.7657 47.3039 62.8627 47.4499 62.9897 47.5769C63.1157 47.7029 63.2617 47.7999 63.4267 47.8689C63.5917 47.9369 63.7637 47.9709 63.9427 47.9709C64.1207 47.9709 64.2927 47.9369 64.4587 47.8689C64.6237 47.7999 64.7687 47.7029 64.8957 47.5769C65.0217 47.4499 65.1197 47.3039 65.1877 47.1389ZM70.8027 48.1419C71.0217 47.9229 71.1317 47.6579 71.1317 47.3479C71.1317 47.0379 71.0217 46.7729 70.8027 46.5539C70.5837 46.3339 70.3187 46.2249 70.0087 46.2249C69.6987 46.2249 69.4337 46.3339 69.2147 46.5539C68.9957 46.7729 68.8857 47.0379 68.8857 47.3479C68.8857 47.6579 68.9957 47.9229 69.2147 48.1419C69.4337 48.3609 69.6987 48.4709 70.0087 48.4709C70.3187 48.4709 70.5837 48.3609 70.8027 48.1419ZM76.7097 48.7079C76.8857 48.5319 76.9727 48.3209 76.9727 48.0729C76.9727 47.8249 76.8857 47.6129 76.7097 47.4369C76.5347 47.2619 76.3227 47.1739 76.0747 47.1739C75.8267 47.1739 75.6147 47.2619 75.4397 47.4369C75.2637 47.6129 75.1767 47.8249 75.1767 48.0729C75.1767 48.3209 75.2637 48.5319 75.4397 48.7079C75.6147 48.8829 75.8267 48.9709 76.0747 48.9709C76.3227 48.9709 76.5347 48.8829 76.7097 48.7079ZM32.181 48.2569C32.0388 48.0649 31.8654 47.9089 31.661 47.7869C31.235 47.5319 30.7815 47.4649 30.3003 47.5859C29.8192 47.7069 29.4514 47.9809 29.1969 48.4069C28.9423 48.8329 28.8755 49.2859 28.9967 49.7669C29.1178 50.2479 29.3914 50.6159 29.8173 50.8709C30.2431 51.1249 30.6966 51.1919 31.1777 51.0709C31.6589 50.9499 32.0267 50.6759 32.2812 50.2509C32.4034 50.0459 32.4819 49.8259 32.5167 49.5899C32.5513 49.3539 32.5396 49.1209 32.4814 48.8899C32.4232 48.6589 32.3231 48.4479 32.181 48.2569ZM26.2455 48.2889C26.1211 48.1209 25.9695 47.9839 25.7905 47.8769C25.4179 47.6539 25.021 47.5959 24.5998 47.7019C24.1788 47.8079 23.857 48.0469 23.6343 48.4199C23.5273 48.5989 23.4586 48.7919 23.4282 48.9979C23.3978 49.2039 23.4081 49.4079 23.459 49.6109C23.5099 49.8129 23.5976 49.9969 23.7219 50.1649C23.8464 50.3319 23.9981 50.4689 24.177 50.5759C24.5497 50.7989 24.9466 50.8569 25.3676 50.7509C25.7886 50.6449 26.1105 50.4059 26.3333 50.0339C26.4403 49.8539 26.5089 49.6619 26.5392 49.4559C26.5696 49.2489 26.5593 49.0449 26.5084 48.8429C26.4575 48.6409 26.3698 48.4559 26.2455 48.2889ZM20.3104 48.3199C20.2038 48.1769 20.0738 48.0589 19.9203 47.9669C19.6008 47.7762 19.2605 47.7262 18.8995 47.8169C18.5385 47.9079 18.2625 48.1129 18.0715 48.4329C17.9798 48.5859 17.9209 48.7509 17.8949 48.9279C17.8689 49.1049 17.8777 49.2799 17.9214 49.4529C17.965 49.6269 18.0401 49.7849 18.1467 49.9289C18.2535 50.0719 18.3835 50.1899 18.537 50.2809C18.8564 50.4719 19.1966 50.5229 19.5576 50.4319C19.9186 50.3409 20.1946 50.1359 20.3856 49.8159C20.4773 49.6629 20.5362 49.4969 20.5622 49.3209C20.5883 49.1439 20.5795 48.9689 20.5359 48.7949C20.4922 48.6219 20.417 48.4629 20.3104 48.3199ZM14.5622 48.7479C14.4865 48.4469 14.3156 48.2179 14.0495 48.0579C13.7834 47.8989 13.5 47.8569 13.1993 47.9329C12.8986 48.0089 12.6687 48.1799 12.5095 48.4459C12.3504 48.7119 12.3086 48.9952 12.3843 49.2959C12.4599 49.5969 12.6308 49.8269 12.8969 49.9859C13.163 50.1449 13.4464 50.1869 13.7471 50.1109C14.0478 50.0349 14.2777 49.8639 14.4368 49.5979C14.5961 49.3319 14.6379 49.0489 14.5622 48.7479ZM8.58897 48.6999C8.52837 48.4599 8.39157 48.2759 8.17857 48.1479C7.96567 48.0209 7.73887 47.9879 7.49827 48.0479C7.25767 48.1089 7.07377 48.2459 6.94647 48.4589C6.81927 48.6719 6.78597 48.8989 6.84657 49.1389C6.90717 49.3799 7.04397 49.5639 7.25697 49.6909C7.46997 49.8179 7.69668 49.8509 7.93728 49.7909C8.17788 49.7299 8.36177 49.5939 8.48907 49.3799C8.61627 49.1669 8.64957 48.9409 8.58897 48.6999ZM82.6177 49.2749C82.749 49.1429 82.8147 48.9839 82.8147 48.7979C82.8147 48.6119 82.7487 48.4529 82.6177 48.3209C82.4857 48.1899 82.3267 48.1239 82.1407 48.1239C81.9547 48.1239 81.796 48.1895 81.6647 48.3209C81.5327 48.4529 81.4667 48.6119 81.4667 48.7979C81.4667 48.9839 81.5327 49.1429 81.6647 49.2749C81.796 49.4062 81.9547 49.4719 82.1407 49.4719C82.3267 49.4719 82.4857 49.4059 82.6177 49.2749ZM2.61636 48.6529C2.57086 48.4729 2.46826 48.3349 2.30856 48.2389C2.14876 48.1439 1.97866 48.1189 1.79816 48.1639C1.61766 48.2089 1.47966 48.3119 1.38416 48.4719C1.28866 48.6319 1.26367 48.8019 1.30907 48.9819C1.35447 49.1629 1.45717 49.3009 1.61687 49.3959C1.77667 49.4919 1.94676 49.5169 2.12726 49.4709C2.30776 49.4259 2.44577 49.3229 2.54127 49.1629C2.63677 49.0039 2.66176 48.8339 2.61636 48.6529ZM56.1287 50.7669C56.2087 50.5739 56.2487 50.3729 56.2487 50.1649C56.2487 49.9562 56.2087 49.7556 56.1287 49.5629C56.0487 49.3699 55.9357 49.1999 55.7877 49.0529C55.6407 48.9049 55.4707 48.7919 55.2777 48.7119C55.0847 48.6319 54.8847 48.5919 54.6757 48.5919C54.4677 48.5919 54.2667 48.6319 54.0737 48.7119C53.8817 48.7919 53.7117 48.9049 53.5637 49.0529C53.4167 49.1999 53.3027 49.3699 53.2227 49.5629C53.1427 49.7559 53.1037 49.9559 53.1037 50.1649C53.1037 50.3729 53.1427 50.5739 53.2227 50.7669C53.3027 50.9589 53.4167 51.1289 53.5637 51.2769C53.7117 51.4239 53.8817 51.5379 54.0737 51.6179C54.2667 51.6979 54.4677 51.7369 54.6757 51.7369C54.8847 51.7369 55.0847 51.6979 55.2777 51.6179C55.4707 51.5379 55.6407 51.4239 55.7877 51.2769C55.9357 51.1289 56.0487 50.9589 56.1287 50.7669ZM61.9877 51.4059C62.0557 51.2409 62.0897 51.0689 62.0897 50.8899C62.0897 50.7119 62.0557 50.5399 61.9877 50.3739C61.9187 50.2089 61.8217 50.0639 61.6957 49.9369C61.569 49.8109 61.423 49.7136 61.2577 49.6449C61.0927 49.5769 60.9207 49.5429 60.7427 49.5429C60.5637 49.5429 60.3917 49.5769 60.2267 49.6449C60.0617 49.7139 59.9157 49.8109 59.7897 49.9369C59.6627 50.0639 59.5657 50.2089 59.4967 50.3739C59.4287 50.5399 59.3947 50.7119 59.3947 50.8899C59.3947 51.0689 59.4287 51.2409 59.4967 51.4059C59.5657 51.5709 59.6627 51.7169 59.7897 51.8429C59.9157 51.9699 60.0617 52.0669 60.2267 52.1349C60.3917 52.2039 60.5637 52.2379 60.7427 52.2379C60.9207 52.2379 61.0927 52.2039 61.2577 52.1349C61.4227 52.0669 61.5687 51.9699 61.6957 51.8429C61.8217 51.7169 61.9187 51.5709 61.9877 51.4059ZM67.6027 52.4089C67.8217 52.1889 67.9317 51.9249 67.9317 51.6149C67.9317 51.3039 67.8217 51.0399 67.6027 50.8199C67.3827 50.6009 67.1187 50.4909 66.8077 50.4909C66.4977 50.4909 66.2327 50.6009 66.0137 50.8199C65.7947 51.0399 65.6847 51.3039 65.6847 51.6149C65.6847 51.9249 65.7947 52.1889 66.0137 52.4089C66.2327 52.6279 66.4977 52.7379 66.8077 52.7379C67.1187 52.7379 67.3827 52.6279 67.6027 52.4089ZM73.5097 52.9749C73.6857 52.7999 73.7727 52.5879 73.7727 52.3399C73.7727 52.0919 73.6857 51.8799 73.5097 51.7039C73.3347 51.5289 73.1227 51.4409 72.8747 51.4409C72.6267 51.4409 72.4147 51.5289 72.2387 51.7039C72.0637 51.8799 71.9757 52.0919 71.9757 52.3399C71.9757 52.5879 72.0637 52.7999 72.2387 52.9749C72.4147 53.1509 72.6267 53.2379 72.8747 53.2379C73.1227 53.2379 73.3347 53.1509 73.5097 52.9749ZM79.4167 53.5409C79.5487 53.4096 79.6147 53.2509 79.6147 53.0649C79.6147 52.8789 79.5487 52.7199 79.4167 52.5879C79.2857 52.4559 79.1267 52.3909 78.9407 52.3909C78.7547 52.3909 78.5957 52.4566 78.4637 52.5879C78.3327 52.7199 78.2667 52.8789 78.2667 53.0649C78.2667 53.2509 78.3324 53.4096 78.4637 53.5409C78.5957 53.6729 78.7547 53.7389 78.9407 53.7389C79.1267 53.7389 79.2857 53.6729 79.4167 53.5409ZM34.2008 53.1929C34.0586 53.0019 33.8852 52.8449 33.6806 52.7219C33.2547 52.4679 32.8011 52.4009 32.32 52.5219C31.8387 52.6439 31.4708 52.9169 31.2162 53.3429C31.0939 53.5479 31.0154 53.7679 30.9806 54.0039C30.946 54.2389 30.9578 54.4729 31.0159 54.7039C31.0741 54.9349 31.1743 55.1459 31.3165 55.3369C31.4588 55.5279 31.6321 55.6849 31.8366 55.8069C32.0412 55.9299 32.2613 56.0079 32.4971 56.0429C32.7329 56.0779 32.9663 56.0659 33.1974 56.0079C33.4284 55.9489 33.6396 55.8489 33.8309 55.7069C34.0222 55.5649 34.1789 55.3919 34.3012 55.1869C34.4235 54.9819 34.5019 54.7619 34.5365 54.5269C34.5713 54.2909 34.5596 54.0569 34.5014 53.8259C34.4432 53.5949 34.343 53.3839 34.2008 53.1929ZM28.2659 53.2249C28.1415 53.0569 27.9898 52.9199 27.8108 52.8129C27.4381 52.5899 27.0411 52.5319 26.6199 52.6379C26.1987 52.7439 25.8767 52.9829 25.6537 53.3559C25.5466 53.5349 25.4779 53.7269 25.4476 53.9339C25.4172 54.1399 25.4274 54.3439 25.4783 54.5469C25.5292 54.7489 25.6168 54.9339 25.7412 55.1009C25.8657 55.2689 26.0174 55.4059 26.1963 55.5129C26.5691 55.7359 26.9661 55.7939 27.3872 55.6879C27.8085 55.5819 28.1306 55.3429 28.3535 54.9699C28.4605 54.7909 28.5292 54.5989 28.5597 54.3919C28.5901 54.1859 28.5799 53.9819 28.529 53.7789C28.4781 53.5769 28.3904 53.3919 28.2659 53.2249ZM22.33 53.2569C22.2233 53.1129 22.0932 52.9959 21.9398 52.9039C21.7864 52.8119 21.6212 52.7529 21.4444 52.7279C21.2675 52.7019 21.0924 52.7099 20.9192 52.7539C20.7459 52.7979 20.5875 52.8729 20.4441 52.9799C20.3006 53.0859 20.1831 53.2159 20.0915 53.3699C19.9998 53.5229 19.941 53.6879 19.915 53.8649C19.889 54.0419 19.8978 54.2169 19.9414 54.3899C19.985 54.5639 20.0602 54.7219 20.1669 54.8649C20.2735 55.0089 20.4036 55.1259 20.557 55.2179C20.7104 55.3099 20.8756 55.3689 21.0524 55.3949C21.2293 55.4209 21.4044 55.4119 21.5776 55.3679C21.751 55.3239 21.9094 55.2489 22.0528 55.1419C22.1962 55.0359 22.3138 54.9059 22.4055 54.7519C22.4972 54.5989 22.556 54.4339 22.582 54.2569C22.608 54.0799 22.5991 53.9049 22.5554 53.7319C22.5118 53.5579 22.4366 53.3999 22.33 53.2569ZM16.5826 53.6839C16.5068 53.3829 16.3358 53.1529 16.0696 52.9939C15.8033 52.8346 15.5196 52.7926 15.2186 52.8679C14.9178 52.9439 14.6878 53.1149 14.5285 53.3809C14.3693 53.6479 14.3275 53.9309 14.4032 54.2319C14.479 54.5329 14.6501 54.7629 14.9164 54.9219C15.1827 55.0819 15.4663 55.1229 15.7671 55.0479C16.0681 54.9719 16.2981 54.8009 16.4572 54.5349C16.6165 54.2679 16.6582 53.9849 16.5826 53.6839ZM10.6085 53.6369C10.5481 53.3969 10.4116 53.2129 10.1988 53.0859C9.98608 52.9579 9.75947 52.9249 9.51897 52.9849C9.27847 53.0459 9.09458 53.1819 8.96718 53.3949C8.83988 53.6079 8.80637 53.8339 8.86677 54.0749C8.92707 54.3149 9.06367 54.4989 9.27637 54.6269C9.48917 54.7539 9.71577 54.7869 9.95627 54.7269C10.1967 54.6669 10.3807 54.5299 10.508 54.3169C10.6354 54.1049 10.6689 53.8779 10.6085 53.6369ZM4.63627 53.5889C4.59087 53.4089 4.48816 53.2709 4.32836 53.1749C4.16856 53.0799 3.99836 53.0539 3.81776 53.0999C3.63716 53.1452 3.49906 53.2479 3.40346 53.4079C3.30786 53.5679 3.28276 53.7379 3.32826 53.9179C3.37366 54.0989 3.47626 54.2369 3.63616 54.3329C3.79596 54.4279 3.96617 54.4529 4.14677 54.4079C4.32737 54.3629 4.46546 54.2599 4.56106 54.0999C4.65666 53.9399 4.68167 53.7699 4.63627 53.5889ZM58.7877 55.6729C58.8557 55.5069 58.8897 55.3349 58.8897 55.1569C58.8897 54.9779 58.8557 54.8059 58.7877 54.6409C58.7187 54.4759 58.6217 54.3299 58.4947 54.2039C58.3687 54.0769 58.2227 53.9799 58.0577 53.9109C57.8927 53.8429 57.7207 53.8089 57.5417 53.8089C57.3627 53.8089 57.1907 53.8429 57.0257 53.9109C56.8607 53.9799 56.7147 54.0769 56.5887 54.2039C56.4627 54.3299 56.3647 54.4759 56.2967 54.6409C56.2277 54.8059 56.1937 54.9779 56.1937 55.1569C56.1937 55.3349 56.2277 55.5069 56.2967 55.6729C56.3647 55.8379 56.4627 55.9839 56.5887 56.1099C56.7147 56.2359 56.8607 56.3339 57.0257 56.4019C57.1907 56.4709 57.3627 56.5049 57.5417 56.5049C57.7207 56.5049 57.8927 56.4709 58.0577 56.4019C58.2227 56.3339 58.3687 56.2359 58.4947 56.1099C58.6217 55.9839 58.7187 55.8379 58.7877 55.6729ZM64.4017 56.6759C64.6217 56.4569 64.7307 56.1919 64.7307 55.8819C64.7307 55.5719 64.6217 55.3069 64.4017 55.0879C64.1827 54.8689 63.9177 54.7589 63.6077 54.7589C63.2977 54.7589 63.0337 54.8689 62.8137 55.0879C62.5947 55.3069 62.4847 55.5719 62.4847 55.8819C62.4847 56.1919 62.5947 56.4569 62.8137 56.6759C63.0337 56.8949 63.2977 57.0049 63.6077 57.0049C63.9177 57.0049 64.1827 56.8949 64.4017 56.6759ZM70.3097 57.2419C70.4847 57.0669 70.5727 56.8549 70.5727 56.6069C70.5727 56.3589 70.4847 56.1469 70.3097 55.9709C70.1337 55.7959 69.9227 55.7079 69.6747 55.7079C69.4257 55.7079 69.2147 55.7959 69.0387 55.9709C68.8637 56.1469 68.7757 56.3589 68.7757 56.6069C68.7757 56.8549 68.8637 57.0669 69.0387 57.2419C69.2147 57.4179 69.4257 57.5049 69.6747 57.5049C69.9227 57.5049 70.1337 57.4179 70.3097 57.2419ZM76.2167 57.8079C76.3487 57.6759 76.4147 57.5179 76.4147 57.3309C76.4147 57.1449 76.3487 56.9862 76.2167 56.8549C76.0854 56.7229 75.9267 56.6569 75.7407 56.6569C75.5547 56.6569 75.3957 56.7229 75.2637 56.8549C75.1324 56.9862 75.0667 57.1449 75.0667 57.3309C75.0667 57.5179 75.1327 57.6759 75.2637 57.8079C75.3957 57.9399 75.5547 58.0059 75.7407 58.0059C75.9267 58.0059 76.0854 57.9399 76.2167 57.8079ZM36.2206 58.1299C36.0786 57.9389 35.9056 57.7819 35.7006 57.6599C35.4966 57.5369 35.2756 57.4589 35.0406 57.4239C34.8045 57.3889 34.5711 57.4009 34.34 57.4589C34.109 57.5169 33.8977 57.6169 33.7063 57.7589C33.515 57.9009 33.3583 58.0749 33.236 58.2789C33.1136 58.4839 33.0351 58.7039 33.0003 58.9399C32.9656 59.1749 32.9773 59.4089 33.0354 59.6399C33.0935 59.8709 33.1936 60.0819 33.3357 60.2739C33.4779 60.4649 33.6512 60.6219 33.8557 60.7439C34.0601 60.8659 34.2803 60.9449 34.516 60.9799C34.7518 61.0139 34.9852 61.0029 35.2166 60.9449C35.4476 60.8869 35.6586 60.7859 35.8496 60.6439C36.0416 60.5019 36.1986 60.3289 36.3206 60.1239C36.4426 59.9199 36.5216 59.6999 36.5556 59.4639C36.5906 59.2279 36.5796 58.9949 36.5206 58.7639C36.4626 58.5329 36.3626 58.3209 36.2206 58.1299ZM30.2855 58.1619C30.1612 57.9939 30.0095 57.8569 29.8306 57.7499C29.6517 57.6429 29.459 57.5739 29.2527 57.5439C29.0464 57.5139 28.8422 57.5239 28.6401 57.5749C28.4378 57.6249 28.253 57.7129 28.0857 57.8369C27.9183 57.9619 27.7811 58.1129 27.674 58.2919C27.567 58.4712 27.4983 58.6639 27.4678 58.8699C27.4374 59.0769 27.4476 59.2809 27.4985 59.4829C27.5493 59.6849 27.6369 59.8699 27.7614 60.0379C27.8858 60.2049 28.0374 60.3419 28.2164 60.4489C28.3953 60.5559 28.5879 60.6249 28.7942 60.6549C29.0006 60.6859 29.2048 60.6749 29.4069 60.6249C29.6091 60.5739 29.7939 60.4859 29.9613 60.3619C30.1287 60.2369 30.2659 60.0859 30.373 59.9069C30.48 59.7279 30.5487 59.5349 30.5791 59.3289C30.6096 59.1229 30.5993 58.9179 30.5484 58.7159C30.4975 58.5139 30.4099 58.3289 30.2855 58.1619ZM24.3493 58.1929C24.2427 58.0499 24.1127 57.9319 23.9593 57.8399C23.806 57.7489 23.6409 57.6899 23.464 57.6639C23.2873 57.6379 23.1122 57.6469 22.9388 57.6899C22.7655 57.7339 22.6072 57.8089 22.4637 57.9159C22.3204 58.0226 22.2029 58.1526 22.1112 58.3059C22.0195 58.4589 21.9606 58.6239 21.9344 58.8009C21.9084 58.9779 21.9172 59.1529 21.9609 59.3259C22.0045 59.4989 22.0796 59.6579 22.1862 59.8009C22.2928 59.9449 22.4228 60.0619 22.5763 60.1539C22.7297 60.2459 22.8948 60.3049 23.0715 60.3309C23.2484 60.3569 23.4235 60.3479 23.5967 60.3039C23.77 60.2599 23.9284 60.1849 24.0719 60.0789C24.2153 59.9719 24.3329 59.8419 24.4246 59.6889C24.5163 59.5349 24.5751 59.3699 24.6011 59.1929C24.6271 59.0162 24.6183 58.8412 24.5747 58.6679C24.5311 58.4949 24.4559 58.3369 24.3493 58.1929ZM18.6024 58.6209C18.5266 58.3199 18.3556 58.0899 18.0894 57.9299C17.8231 57.7709 17.5395 57.7299 17.2387 57.8049C16.9378 57.8809 16.7078 58.0519 16.5486 58.3179C16.3895 58.5849 16.3477 58.8679 16.4234 59.1689C16.4992 59.4699 16.6702 59.6999 16.9364 59.8589C17.2027 60.0179 17.4863 60.0599 17.7872 59.9839C18.088 59.9089 18.318 59.7379 18.4771 59.4709C18.6363 59.2049 18.6781 58.9209 18.6024 58.6209ZM12.629 58.5739C12.5686 58.3329 12.4319 58.1489 12.2189 58.0219C12.006 57.8939 11.7791 57.8609 11.5384 57.9209C11.2976 57.9809 11.1136 58.1179 10.9861 58.3309C10.8586 58.5439 10.8251 58.7709 10.8855 59.0119C10.946 59.2519 11.0827 59.4359 11.2957 59.5639C11.5086 59.6909 11.7355 59.7249 11.9762 59.6639C12.2169 59.6039 12.401 59.4669 12.5285 59.2539C12.656 59.0409 12.6895 58.8139 12.629 58.5739ZM6.65517 58.5259C6.60987 58.3459 6.50738 58.2079 6.34778 58.1129C6.18818 58.0169 6.01817 57.9919 5.83787 58.0369C5.65747 58.0829 5.51957 58.1849 5.42407 58.3449C5.32867 58.5039 5.30357 58.6739 5.34897 58.8549C5.39427 59.0349 5.49677 59.1729 5.65637 59.2679C5.81597 59.3639 5.98597 59.3889 6.16627 59.3439C6.34667 59.2979 6.48458 59.1959 6.58008 59.0359C6.67548 58.8766 6.7005 58.7066 6.65517 58.5259ZM61.2017 60.9429C61.4207 60.7229 61.5307 60.4589 61.5307 60.1489C61.5307 59.8389 61.4207 59.5739 61.2017 59.3549C60.9827 59.1349 60.7177 59.0259 60.4077 59.0259C60.0977 59.0259 59.8327 59.1349 59.6137 59.3549C59.3947 59.5739 59.2847 59.8389 59.2847 60.1489C59.2847 60.4589 59.3947 60.7229 59.6137 60.9429C59.8327 61.1619 60.0977 61.2719 60.4077 61.2719C60.7177 61.2719 60.9827 61.1619 61.2017 60.9429ZM67.1097 61.5089C67.2847 61.3329 67.3727 61.1219 67.3727 60.8739C67.3727 60.6249 67.2847 60.4139 67.1097 60.2379C66.9347 60.0629 66.7227 59.9749 66.4747 59.9749C66.2267 59.9749 66.0147 60.0629 65.8387 60.2379C65.6637 60.4139 65.5757 60.6249 65.5757 60.8739C65.5757 61.1219 65.6637 61.3329 65.8387 61.5089C66.0147 61.6839 66.2267 61.7719 66.4747 61.7719C66.7227 61.7719 66.9347 61.6839 67.1097 61.5089ZM73.0167 62.0749C73.1487 61.9429 73.2137 61.7839 73.2137 61.5979C73.2137 61.4119 73.1487 61.2529 73.0167 61.1219C72.8847 60.9899 72.7267 60.9249 72.5397 60.9249C72.3537 60.9249 72.1957 60.9899 72.0637 61.1219C71.9317 61.2529 71.8667 61.4119 71.8667 61.5979C71.8667 61.7839 71.9317 61.9429 72.0637 62.0749C72.1957 62.2059 72.3537 62.2719 72.5397 62.2719C72.7267 62.2719 72.8847 62.2059 73.0167 62.0749ZM38.2406 63.0659C38.0986 62.8749 37.9246 62.7179 37.7206 62.5959C37.5156 62.4729 37.2956 62.3949 37.0596 62.3599C36.8246 62.3249 36.5906 62.3369 36.3596 62.3949C36.1286 62.4529 35.9176 62.5529 35.7266 62.6959C35.5346 62.8379 35.3786 63.0109 35.2556 63.2159C35.1336 63.4199 35.0556 63.6399 35.0206 63.8759C34.9858 64.1119 34.9975 64.3449 35.0556 64.5759C35.1136 64.8069 35.2136 65.0179 35.3556 65.2099C35.4983 65.4012 35.6716 65.5579 35.8756 65.6799C36.0806 65.8019 36.3006 65.8809 36.5366 65.9159C36.7726 65.9499 37.0056 65.9379 37.2366 65.8799C37.4676 65.8219 37.6786 65.7219 37.8696 65.5799C38.0616 65.4379 38.2176 65.2639 38.3406 65.0599C38.4626 64.8549 38.5416 64.6349 38.5756 64.3999C38.6106 64.1639 38.5986 63.9299 38.5406 63.6989C38.4826 63.4679 38.3826 63.2569 38.2406 63.0659ZM32.305 63.0979C32.1805 62.9299 32.0288 62.7929 31.8499 62.6859C31.6708 62.5789 31.4781 62.5099 31.2718 62.4799C31.0655 62.4499 30.8612 62.4599 30.659 62.5109C30.4567 62.5619 30.2719 62.6489 30.1046 62.7739C29.9372 62.8979 29.8 63.0499 29.6931 63.2289C29.586 63.4079 29.5173 63.5999 29.4869 63.8069C29.4566 64.0129 29.4669 64.2169 29.5178 64.4199C29.5687 64.6219 29.6563 64.8069 29.7807 64.9739C29.9052 65.1409 30.0569 65.2789 30.2358 65.3859C30.4148 65.4929 30.6075 65.5609 30.8139 65.5919C31.0202 65.6219 31.2245 65.6119 31.4267 65.5609C31.629 65.5099 31.8138 65.4219 31.9811 65.2979C32.1485 65.1739 32.2857 65.0219 32.3927 64.8429C32.4996 64.6639 32.5683 64.4709 32.5988 64.2649C32.6291 64.0589 32.6188 63.8539 32.5679 63.6519C32.517 63.4499 32.4294 63.2649 32.305 63.0979ZM26.3697 63.1299C26.2631 62.9859 26.1331 62.8689 25.9797 62.7769C25.6602 62.5859 25.32 62.5359 24.959 62.6269C24.5982 62.7169 24.3222 62.9229 24.131 63.2419C24.0393 63.3949 23.9805 63.5599 23.9545 63.7369C23.9283 63.9139 23.9371 64.0889 23.9807 64.2619C24.0243 64.4359 24.0995 64.5939 24.2061 64.7379C24.3127 64.8809 24.4426 64.9989 24.5959 65.0899C24.9154 65.2809 25.2556 65.3319 25.6166 65.2409C25.9776 65.1499 26.2536 64.9449 26.4446 64.6259C26.5363 64.4719 26.5952 64.3069 26.6213 64.1299C26.6473 63.9529 26.6386 63.7779 26.5951 63.6049C26.5514 63.4319 26.4763 63.2729 26.3697 63.1299ZM20.6212 63.5579C20.5454 63.2569 20.3744 63.0269 20.1082 62.8679C19.8419 62.7079 19.5584 62.6669 19.2576 62.7419C18.9569 62.8179 18.7269 62.9889 18.5677 63.2549C18.4086 63.5219 18.3668 63.8049 18.4425 64.1059C18.5182 64.4069 18.6891 64.6369 18.9553 64.7959C19.2217 64.9549 19.5052 64.9969 19.8059 64.9209C20.1067 64.8449 20.3367 64.6739 20.4958 64.4079C20.655 64.1419 20.6968 63.8579 20.6212 63.5579ZM14.6485 63.5099C14.5879 63.2689 14.451 63.0849 14.2379 62.9579C14.025 62.8309 13.7981 62.7969 13.5574 62.8579C13.3167 62.9179 13.1327 63.0549 13.0054 63.2679C12.8781 63.4812 12.8448 63.7082 12.9054 63.9489C12.9661 64.1899 13.1029 64.3739 13.316 64.5009C13.5291 64.6279 13.756 64.6619 13.9967 64.6009C14.2374 64.5399 14.4213 64.4029 14.5485 64.1899C14.6758 63.9769 14.7091 63.7499 14.6485 63.5099ZM8.67518 63.4619C8.62968 63.2819 8.52697 63.1439 8.36717 63.0479C8.20744 62.9526 8.03737 62.9279 7.85697 62.9739C7.67647 63.0189 7.53857 63.1219 7.44327 63.2819C7.34787 63.4409 7.32298 63.6109 7.36848 63.7919C7.41398 63.9719 7.51667 64.1099 7.67647 64.2059C7.83617 64.3009 8.00627 64.3259 8.18677 64.2799C8.36717 64.2349 8.50507 64.1319 8.60037 63.9719C8.69577 63.8119 8.72068 63.6419 8.67518 63.4619ZM63.9087 65.7759C64.0847 65.6009 64.1727 65.3889 64.1727 65.1409C64.1727 64.8929 64.0847 64.6809 63.9087 64.5049C63.7337 64.3299 63.5217 64.2419 63.2737 64.2419C63.0257 64.2419 62.8137 64.3299 62.6387 64.5049C62.4627 64.6809 62.3747 64.8929 62.3747 65.1409C62.3747 65.3889 62.4627 65.6009 62.6387 65.7759C62.8137 65.9519 63.0257 66.0389 63.2737 66.0389C63.5217 66.0389 63.7337 65.9519 63.9087 65.7759ZM69.8157 66.3419C69.9477 66.2109 70.0137 66.0519 70.0137 65.8659C70.0137 65.6799 69.9477 65.5209 69.8157 65.3889C69.6847 65.2579 69.5257 65.1919 69.3397 65.1919C69.1537 65.1919 68.9947 65.2579 68.8637 65.3889C68.7317 65.5209 68.6657 65.6799 68.6657 65.8659C68.6657 66.0519 68.7317 66.2109 68.8637 66.3419C68.9947 66.4739 69.1537 66.5389 69.3397 66.5389C69.5257 66.5389 69.6847 66.4739 69.8157 66.3419ZM40.5606 68.6359C40.4386 68.1549 40.1656 67.7869 39.7396 67.5319C39.3136 67.2772 38.8603 67.2106 38.3796 67.3319C37.8976 67.4529 37.5296 67.7269 37.2756 68.1529C37.0206 68.5789 36.9536 69.0319 37.0756 69.5129C37.1966 69.9939 37.4696 70.3619 37.8956 70.6169C38.3216 70.8709 38.7746 70.9379 39.2566 70.8169C39.7376 70.6959 40.1056 70.4229 40.3596 69.9969C40.6146 69.5709 40.6816 69.1169 40.5606 68.6359ZM34.5874 68.5879C34.4814 68.1669 34.2421 67.8449 33.8695 67.6219C33.6906 67.5149 33.498 67.4469 33.2916 67.4159C33.0853 67.3859 32.8811 67.3959 32.679 67.4469C32.4768 67.4979 32.292 67.5859 32.1246 67.7099C31.9573 67.8339 31.8202 67.9859 31.7133 68.1649C31.4904 68.5379 31.432 68.9349 31.5378 69.3559C31.6438 69.7769 31.8832 70.0989 32.2558 70.3209C32.4348 70.4279 32.6274 70.4969 32.8337 70.5269C33.0399 70.5579 33.2441 70.5479 33.4464 70.4969C33.6485 70.4459 33.8332 70.3579 34.0006 70.2339C34.168 70.1089 34.3051 69.9579 34.4121 69.7789C34.6349 69.4059 34.6934 69.0089 34.5874 68.5879ZM28.6144 68.5419C28.5237 68.1809 28.3186 67.9049 27.9991 67.7139C27.8457 67.6219 27.6806 67.5629 27.5039 67.5369C27.327 67.5109 27.1519 67.5199 26.9785 67.5629C26.8052 67.6069 26.6468 67.6819 26.5034 67.7889C26.3599 67.8949 26.2423 68.0249 26.1505 68.1779C25.9594 68.4979 25.9093 68.8379 26.0002 69.1989C26.0909 69.5603 26.2959 69.8363 26.6154 70.0269C26.7689 70.1189 26.9339 70.1779 27.1107 70.2039C27.2875 70.2299 27.4627 70.2209 27.6361 70.1779C27.8093 70.1339 27.9677 70.0589 28.1112 69.9519C28.2546 69.8459 28.3723 69.7159 28.4641 69.5619C28.6551 69.2429 28.7052 68.9029 28.6144 68.5419ZM22.6406 68.4939C22.5649 68.1929 22.3941 67.9629 22.128 67.8039C21.8619 67.6449 21.5785 67.6029 21.2778 67.6789C20.9771 67.7549 20.7472 67.9259 20.5881 68.1919C20.429 68.4579 20.3872 68.7409 20.4629 69.0419C20.5386 69.3429 20.7095 69.5719 20.9755 69.7319C21.2416 69.8909 21.525 69.9319 21.8257 69.8569C22.1264 69.7809 22.3564 69.6099 22.5155 69.3439C22.6746 69.0779 22.7163 68.7949 22.6406 68.4939ZM16.6678 68.4469C16.6073 68.2059 16.4706 68.0219 16.2578 67.8949C16.0448 67.7669 15.818 67.7339 15.5775 67.7939C15.3369 67.8549 15.153 67.9919 15.0258 68.2049C14.8985 68.4179 14.8651 68.6439 14.9256 68.8849C14.9861 69.1249 15.1228 69.3089 15.3357 69.4369C15.5486 69.5639 15.7753 69.5969 16.0158 69.5369C16.2563 69.4759 16.4403 69.3399 16.5676 69.1269C16.6949 68.9139 16.7283 68.6869 16.6678 68.4469ZM10.6951 68.3989C10.6496 68.2179 10.5471 68.0799 10.3873 67.9849C10.2276 67.8889 10.0574 67.8639 9.87688 67.9089C9.69638 67.9549 9.55837 68.0579 9.46287 68.2169C9.36737 68.3769 9.34237 68.5469 9.38777 68.7279C9.43324 68.9079 9.53584 69.0459 9.69557 69.1419C9.85527 69.2369 10.0255 69.2619 10.206 69.2169C10.3865 69.1709 10.5245 69.0689 10.62 68.9089C10.7155 68.7489 10.7405 68.5789 10.6951 68.3989ZM66.6167 70.6089C66.7477 70.4769 66.8137 70.3179 66.8137 70.1319C66.8137 69.9459 66.7477 69.7869 66.6167 69.6559C66.4847 69.5239 66.3257 69.4579 66.1397 69.4579C65.9537 69.4579 65.7947 69.5239 65.6637 69.6559C65.5317 69.7869 65.4657 69.9459 65.4657 70.1319C65.4657 70.3179 65.5317 70.4769 65.6637 70.6089C65.7947 70.7399 65.9537 70.8059 66.1397 70.8059C66.3257 70.8059 66.4847 70.7399 66.6167 70.6089ZM42.5806 73.5719C42.4596 73.0909 42.1856 72.7229 41.7596 72.4679C41.5546 72.3459 41.3346 72.2669 41.0986 72.2329C40.8636 72.1979 40.6296 72.2099 40.3986 72.2679C40.1676 72.3259 39.9566 72.4259 39.7646 72.5679C39.5736 72.7109 39.4166 72.8839 39.2946 73.0889C39.0396 73.5149 38.9726 73.9679 39.0946 74.4499C39.2156 74.9309 39.4896 75.2989 39.9156 75.5539C40.1196 75.6759 40.3396 75.7539 40.5756 75.7889C40.8116 75.8239 41.0446 75.8119 41.2766 75.7539C41.5076 75.6959 41.7186 75.5959 41.9096 75.4529C42.1016 75.3109 42.2576 75.1379 42.3806 74.9329C42.6346 74.5069 42.7016 74.0529 42.5806 73.5719ZM36.3436 72.9719C36.2196 72.8049 36.0676 72.6669 35.8896 72.5599C35.7106 72.4529 35.5176 72.3849 35.3116 72.3539C35.1056 72.3239 34.901 72.3339 34.6988 72.3849C34.4966 72.4359 34.3118 72.5229 34.1444 72.6479C33.9772 72.7719 33.84 72.9239 33.7329 73.1019C33.6259 73.2809 33.5572 73.4739 33.5268 73.6799C33.4963 73.8859 33.5066 74.0909 33.5575 74.2929C33.6083 74.4949 33.6958 74.6799 33.8202 74.8469C33.9445 75.0139 34.0962 75.1519 34.2751 75.2589C34.4541 75.3659 34.6466 75.4339 34.8528 75.4649C35.0586 75.4949 35.2636 75.4849 35.4656 75.4339C35.6676 75.3829 35.8526 75.2959 36.0196 75.1709C36.1866 75.0469 36.3246 74.8949 36.4316 74.7159C36.5386 74.5379 36.6066 74.3449 36.6376 74.1389C36.6676 73.9329 36.6576 73.7279 36.6066 73.5259C36.5556 73.3239 36.4686 73.1389 36.3436 72.9719ZM30.4085 73.0029C30.3018 72.8589 30.1717 72.7409 30.0182 72.6499C29.6987 72.4579 29.3584 72.4079 28.9974 72.4989C28.6363 72.5899 28.3602 72.7949 28.1692 73.1149C28.0775 73.2679 28.0186 73.4329 27.9925 73.6099C27.9665 73.7869 27.9753 73.9619 28.0189 74.1359C28.0625 74.3089 28.1377 74.4679 28.2443 74.6109C28.351 74.7549 28.4811 74.8719 28.6345 74.9639C28.954 75.1549 29.2942 75.2049 29.6553 75.1139C30.0163 75.0229 30.2924 74.8179 30.4835 74.4989C30.5752 74.3449 30.6341 74.1799 30.6603 74.0029C30.6863 73.8259 30.6775 73.6509 30.6338 73.4779C30.5902 73.3039 30.5151 73.1459 30.4085 73.0029ZM24.661 73.4299C24.5853 73.1289 24.4143 72.8989 24.148 72.7399C23.8817 72.5812 23.5981 72.5396 23.2973 72.6149C22.9964 72.6909 22.7665 72.8619 22.6073 73.1279C22.4482 73.3939 22.4065 73.6779 22.4822 73.9789C22.558 74.2799 22.7291 74.5099 22.9954 74.6689C23.2616 74.8279 23.5451 74.8699 23.8459 74.7939C24.1468 74.7179 24.3768 74.5469 24.536 74.2809C24.6952 74.0149 24.7368 73.7309 24.661 73.4299ZM18.6875 73.3829C18.6269 73.1429 18.4903 72.9589 18.2774 72.8309C18.0645 72.7039 17.8377 72.6709 17.5971 72.7309C17.3564 72.7909 17.1724 72.9279 17.0451 73.1409C16.9177 73.3539 16.8842 73.5809 16.9447 73.8209C17.0052 74.0619 17.142 74.2459 17.3549 74.3739C17.5678 74.5009 17.7946 74.5339 18.0353 74.4739C18.2758 74.4129 18.4598 74.2769 18.5871 74.0639C18.7145 73.8509 18.748 73.6239 18.6875 73.3829ZM12.714 73.3359C12.6686 73.1553 12.5661 73.0173 12.4064 72.9219C12.2468 72.8269 12.0767 72.8019 11.8963 72.8469C11.7159 72.8919 11.578 72.9949 11.4826 73.1549C11.3871 73.3143 11.3621 73.4843 11.4075 73.6649C11.4529 73.8449 11.5554 73.9826 11.7151 74.0779C11.8748 74.1739 12.0448 74.1989 12.2252 74.1529C12.4056 74.1079 12.5435 74.0059 12.639 73.8459C12.7344 73.6859 12.7594 73.5159 12.714 73.3359Z" fill="#5887A7"/>
<path fill-rule="evenodd" clip-rule="evenodd" d="M61.7091 8.8627C61.7091 9.1937 61.6461 9.5117 61.5191 9.8177C61.3921 10.1237 61.2121 10.3937 60.9781 10.6277C60.7441 10.8617 60.4741 11.0417 60.1681 11.1687C59.8621 11.2947 59.5441 11.3587 59.2131 11.3587C58.8821 11.3587 58.5641 11.2947 58.2581 11.1687C57.9521 11.0417 57.6821 10.8617 57.4481 10.6277C57.2141 10.3937 57.0341 10.1237 56.9071 9.8177C56.7801 9.5117 56.7171 9.1937 56.7171 8.8627C56.7171 8.53137 56.7804 8.21303 56.9071 7.9077C57.0341 7.6017 57.2141 7.3317 57.4481 7.0977C57.6821 6.8637 57.9521 6.6827 58.2581 6.5567C58.5641 6.4297 58.8821 6.3667 59.2131 6.3667C59.5441 6.3667 59.8621 6.4297 60.1681 6.5567C60.4741 6.6827 60.7441 6.8637 60.9781 7.0977C61.2121 7.3317 61.3921 7.6017 61.5191 7.9077C61.6458 8.21303 61.7091 8.53137 61.7091 8.8627ZM58.5091 13.1287C58.5091 13.4597 58.4451 13.7787 58.3191 14.0847C58.1921 14.3897 58.0121 14.6597 57.7781 14.8937C57.5441 15.1277 57.2741 15.3087 56.9681 15.4347C56.6621 15.5617 56.3441 15.6247 56.0131 15.6247C55.6821 15.6247 55.3641 15.5617 55.0581 15.4347C54.7521 15.3087 54.4821 15.1277 54.2481 14.8937C54.0141 14.6597 53.8341 14.3897 53.7071 14.0847C53.5801 13.7787 53.5171 13.4597 53.5171 13.1287C53.5171 12.798 53.5804 12.4797 53.7071 12.1737C53.8341 11.8677 54.0141 11.5987 54.2481 11.3637C54.4821 11.1297 54.7521 10.9497 55.0581 10.8237C55.3641 10.6967 55.6821 10.6337 56.0131 10.6337C56.3441 10.6337 56.6621 10.6967 56.9681 10.8237C57.2741 10.9497 57.5441 11.1297 57.7781 11.3637C58.0121 11.5987 58.1921 11.8677 58.3191 12.1737C58.4458 12.4797 58.5091 12.798 58.5091 13.1287ZM64.3251 13.8537C64.3251 14.1517 64.2681 14.4387 64.1541 14.7137C64.0401 14.9887 63.8781 15.2317 63.6671 15.4417C63.4571 15.6527 63.2141 15.8147 62.9391 15.9287C62.6631 16.0427 62.3771 16.0997 62.0791 16.0997C61.7811 16.0997 61.4951 16.0427 61.2201 15.9287C60.9448 15.8147 60.7018 15.6524 60.4911 15.4417C60.2801 15.2317 60.1181 14.9887 60.0041 14.7137C59.8901 14.4387 59.8331 14.1517 59.8331 13.8537C59.8331 13.5557 59.8901 13.2697 60.0041 12.9947C60.1181 12.7197 60.2801 12.4767 60.4911 12.2657C60.7021 12.0557 60.9441 11.8927 61.2201 11.7787C61.4951 11.6647 61.7811 11.6077 62.0791 11.6077C62.3771 11.6077 62.6631 11.6647 62.9391 11.7787C63.2141 11.8927 63.4571 12.0557 63.6671 12.2657C63.8781 12.4767 64.0401 12.7197 64.1541 12.9947C64.2681 13.2697 64.3251 13.5557 64.3251 13.8537ZM55.3081 17.3957C55.3081 17.7267 55.2451 18.0457 55.1181 18.3507C54.9921 18.6567 54.8121 18.9267 54.5771 19.1607C54.3431 19.3947 54.0741 19.5757 53.7681 19.7017C53.4621 19.8287 53.1441 19.8917 52.8131 19.8917C52.4821 19.8917 52.1631 19.8287 51.8581 19.7017C51.5521 19.5757 51.2821 19.3947 51.0481 19.1607C50.8141 18.9267 50.6341 18.6567 50.5071 18.3507C50.3801 18.0457 50.3171 17.7267 50.3171 17.3957C50.3171 17.0657 50.3801 16.7467 50.5071 16.4407C50.6341 16.1357 50.8141 15.8657 51.0481 15.6317C51.2821 15.3977 51.5521 15.2167 51.8581 15.0907C52.1631 14.9637 52.4821 14.9007 52.8131 14.9007C53.1441 14.9007 53.4621 14.9637 53.7681 15.0907C54.0741 15.2167 54.3431 15.3977 54.5771 15.6317C54.8121 15.8657 54.9921 16.1357 55.1181 16.4407C55.2451 16.7467 55.3081 17.0657 55.3081 17.3957ZM61.1251 18.1207C61.1251 18.4187 61.0681 18.7054 60.9541 18.9807C60.8401 19.2557 60.6771 19.4987 60.4671 19.7097C60.2561 19.9197 60.0131 20.0827 59.7381 20.1967C59.4631 20.3107 59.1761 20.3677 58.8791 20.3677C58.5811 20.3677 58.2941 20.3107 58.0191 20.1967C57.7441 20.0827 57.5011 19.9197 57.2901 19.7097C57.0801 19.4987 56.9171 19.2557 56.8031 18.9807C56.6891 18.7057 56.6321 18.4187 56.6321 18.1207C56.6321 17.8237 56.6891 17.5367 56.8031 17.2617C56.9171 16.9867 57.0801 16.7437 57.2901 16.5327C57.5011 16.3227 57.7441 16.1597 58.0191 16.0457C58.2941 15.9317 58.5811 15.8747 58.8791 15.8747C59.1761 15.8747 59.4631 15.9317 59.7381 16.0457C60.0131 16.1597 60.2561 16.3227 60.4671 16.5327C60.6771 16.7437 60.8401 16.9867 60.9541 17.2617C61.0681 17.5367 61.1251 17.8237 61.1251 18.1207ZM66.9671 18.8457C66.9671 19.1137 66.9161 19.3717 66.8131 19.6197C66.7101 19.8677 66.5641 20.0857 66.3751 20.2757C66.1851 20.4647 65.9661 20.6107 65.7191 20.7137C65.4711 20.8164 65.2131 20.8677 64.9451 20.8677C64.6771 20.8677 64.4191 20.8167 64.1711 20.7137C63.9241 20.6107 63.7051 20.4647 63.5161 20.2757C63.3261 20.0857 63.1801 19.8677 63.0771 19.6197C62.9751 19.3717 62.9231 19.1137 62.9231 18.8457C62.9231 18.5777 62.9751 18.3197 63.0771 18.0727C63.1801 17.8247 63.3261 17.6057 63.5161 17.4167C63.7051 17.2267 63.9241 17.0807 64.1711 16.9777C64.4191 16.8757 64.6771 16.8237 64.9451 16.8237C65.2131 16.8237 65.4711 16.8751 65.7191 16.9777C65.9661 17.0807 66.1851 17.2267 66.3751 17.4167C66.5641 17.6057 66.7101 17.8247 66.8131 18.0727C66.9161 18.3197 66.9671 18.5777 66.9671 18.8457ZM52.1081 21.6627C52.1081 21.9937 52.0451 22.3117 51.9181 22.6177C51.7921 22.9237 51.6111 23.1937 51.3771 23.4277C51.1431 23.6617 50.8731 23.8417 50.5681 23.9687C50.2621 24.0947 49.9431 24.1587 49.6131 24.1587C49.2821 24.1587 48.9631 24.0947 48.6581 23.9687C48.3521 23.8417 48.0821 23.6617 47.8481 23.4277C47.6141 23.1937 47.4331 22.9237 47.3071 22.6177C47.1801 22.3117 47.1171 21.9937 47.1171 21.6627C47.1171 21.3317 47.1801 21.0137 47.3071 20.7077C47.4331 20.4017 47.6141 20.1317 47.8481 19.8977C48.0821 19.6637 48.3521 19.4837 48.6581 19.3577C48.9631 19.2307 49.2821 19.1667 49.6131 19.1667C49.9431 19.1667 50.2621 19.2307 50.5681 19.3577C50.8731 19.4837 51.1431 19.6637 51.3771 19.8977C51.6111 20.1317 51.7921 20.4017 51.9181 20.7077C52.0451 21.0137 52.1081 21.3317 52.1081 21.6627ZM57.9241 22.3887C57.9241 22.6857 57.8671 22.9727 57.7531 23.2477C57.6391 23.5227 57.4771 23.7657 57.2671 23.9767C57.0561 24.1867 56.8131 24.3487 56.5381 24.4627C56.2631 24.5767 55.9761 24.6337 55.6791 24.6337C55.3811 24.6337 55.0941 24.5767 54.8191 24.4627C54.5441 24.3487 54.3011 24.1867 54.0901 23.9767C53.8801 23.7657 53.7181 23.5227 53.6041 23.2477C53.4901 22.9727 53.4331 22.6857 53.4331 22.3887C53.4331 22.0907 53.4901 21.8037 53.6041 21.5287C53.7181 21.2537 53.8801 21.0107 54.0901 20.7997C54.3011 20.5897 54.5441 20.4277 54.8191 20.3137C55.0941 20.1997 55.3811 20.1427 55.6791 20.1427C55.9761 20.1427 56.2631 20.1997 56.5381 20.3137C56.8131 20.4277 57.0561 20.5897 57.2671 20.7997C57.4771 21.0107 57.6391 21.2537 57.7531 21.5287C57.8671 21.8037 57.9241 22.0907 57.9241 22.3887ZM63.7671 23.1127C63.7671 23.3807 63.7158 23.6387 63.6131 23.8867C63.5101 24.1337 63.3641 24.3527 63.1741 24.5427C62.9851 24.7317 62.7661 24.8777 62.5191 24.9807C62.2711 25.0827 62.0131 25.1347 61.7451 25.1347C61.4771 25.1347 61.2191 25.0827 60.9711 24.9807C60.7241 24.8777 60.5051 24.7317 60.3151 24.5427C60.1261 24.3527 59.9801 24.1337 59.8771 23.8867C59.7744 23.6387 59.7231 23.3807 59.7231 23.1127C59.7231 22.8447 59.7744 22.5867 59.8771 22.3387C59.9801 22.0917 60.1261 21.8727 60.3151 21.6827C60.5051 21.4937 60.7241 21.3477 60.9711 21.2447C61.2191 21.1427 61.4771 21.0907 61.7451 21.0907C62.0131 21.0907 62.2711 21.1427 62.5191 21.2447C62.7661 21.3477 62.9851 21.4937 63.1741 21.6827C63.3641 21.8727 63.5101 22.0917 63.6131 22.3387C63.7158 22.5867 63.7671 22.8447 63.7671 23.1127ZM48.9081 25.9297C48.9081 26.2607 48.8451 26.5787 48.7181 26.8847C48.5921 27.1907 48.4111 27.4607 48.1771 27.6947C47.9431 27.9287 47.6731 28.1087 47.3681 28.2357C47.0621 28.3627 46.7431 28.4257 46.4121 28.4257C46.0811 28.4257 45.7631 28.3627 45.4571 28.2357C45.1511 28.1087 44.8811 27.9287 44.6471 27.6947C44.4131 27.4607 44.2331 27.1907 44.1061 26.8847C43.9801 26.5787 43.9161 26.2607 43.9161 25.9297C43.9161 25.5987 43.9801 25.2807 44.1061 24.9747C44.2331 24.6687 44.4131 24.3987 44.6471 24.1647C44.8811 23.9307 45.1511 23.7507 45.4571 23.6237C45.7631 23.4977 46.0811 23.4337 46.4121 23.4337C46.7431 23.4337 47.0621 23.4977 47.3681 23.6237C47.6731 23.7507 47.9431 23.9307 48.1771 24.1647C48.4111 24.3987 48.5921 24.6687 48.7181 24.9747C48.8451 25.2807 48.9081 25.5987 48.9081 25.9297ZM54.7241 26.6547C54.7241 26.9527 54.6671 27.2394 54.5531 27.5147C54.4391 27.7897 54.2771 28.0327 54.0671 28.2437C53.8561 28.4537 53.6131 28.6157 53.3381 28.7297C53.0631 28.8437 52.7761 28.9007 52.4791 28.9007C52.1811 28.9007 51.8941 28.8437 51.6191 28.7297C51.3441 28.6157 51.1011 28.4537 50.8901 28.2437C50.6801 28.0327 50.5181 27.7897 50.4041 27.5147C50.2901 27.2394 50.2331 26.9527 50.2331 26.6547C50.2331 26.3577 50.2901 26.0707 50.4041 25.7957C50.5181 25.5207 50.6801 25.2777 50.8901 25.0667C51.1011 24.8567 51.3441 24.6947 51.6191 24.5807C51.8941 24.4667 52.1811 24.4097 52.4791 24.4097C52.7761 24.4097 53.0631 24.4667 53.3381 24.5807C53.6131 24.6947 53.8561 24.8567 54.0671 25.0667C54.2771 25.2777 54.4391 25.5207 54.5531 25.7957C54.6671 26.0707 54.7241 26.3577 54.7241 26.6547ZM60.5661 27.3797C60.5661 27.6477 60.5151 27.9057 60.4131 28.1537C60.3101 28.4017 60.1641 28.6197 59.9741 28.8097C59.7848 28.9991 59.5661 29.1451 59.3181 29.2477C59.0708 29.3504 58.8131 29.4017 58.5451 29.4017C58.2771 29.4017 58.0191 29.3507 57.7711 29.2477C57.5231 29.1447 57.3051 28.9987 57.1151 28.8097C56.9261 28.6197 56.7791 28.4017 56.6771 28.1537C56.5741 27.9057 56.5231 27.6477 56.5231 27.3797C56.5231 27.1117 56.5741 26.8537 56.6771 26.6057C56.7791 26.3587 56.9261 26.1397 57.1151 25.9507C57.3051 25.7607 57.5231 25.6147 57.7711 25.5117C58.0191 25.4097 58.2771 25.3577 58.5451 25.3577C58.8131 25.3577 59.0708 25.4091 59.3181 25.5117C59.5661 25.6147 59.7851 25.7607 59.9741 25.9507C60.1641 26.1397 60.3101 26.3587 60.4131 26.6057C60.5151 26.8537 60.5661 27.1117 60.5661 27.3797ZM45.7081 30.1967C45.7081 30.5277 45.6441 30.8457 45.5181 31.1517C45.3911 31.4577 45.2111 31.7277 44.9771 31.9617C44.7431 32.1957 44.4731 32.3757 44.1671 32.5027C43.8611 32.6287 43.5431 32.6927 43.2121 32.6927C42.8811 32.6927 42.5631 32.6287 42.2571 32.5027C41.9511 32.3757 41.6811 32.1957 41.4471 31.9617C41.2131 31.7277 41.0331 31.4577 40.9061 31.1517C40.7801 30.8457 40.7161 30.5277 40.7161 30.1967C40.7161 29.8657 40.7801 29.5477 40.9061 29.2417C41.0331 28.9357 41.2131 28.6657 41.4471 28.4317C41.6811 28.1977 41.9511 28.0177 42.2571 27.8907C42.5631 27.7647 42.8811 27.7007 43.2121 27.7007C43.5431 27.7007 43.8611 27.7647 44.1671 27.8907C44.4731 28.0177 44.7431 28.1977 44.9771 28.4317C45.2111 28.6657 45.3911 28.9357 45.5181 29.2417C45.6441 29.5477 45.7081 29.8657 45.7081 30.1967ZM10.3603 29.0407C10.6245 29.5327 10.676 30.0457 10.515 30.5807C10.354 31.1147 10.0276 31.5147 9.53581 31.7787C9.29951 31.9057 9.04801 31.9817 8.78131 32.0087C8.51451 32.0357 8.2527 32.0107 7.996 31.9337C7.7393 31.8557 7.5071 31.7327 7.2995 31.5627C7.0919 31.3927 6.92471 31.1908 6.79781 30.9538C6.67101 30.7178 6.59417 30.4664 6.5673 30.1997C6.5405 29.9327 6.56581 29.6707 6.64311 29.4147C6.72041 29.1577 6.8439 28.9257 7.0136 28.7177C7.1832 28.5107 7.38621 28.3427 7.62241 28.2157C7.85861 28.0897 8.1101 28.0127 8.3768 27.9857C8.6436 27.9587 8.9054 27.9837 9.1621 28.0617C9.4188 28.1387 9.65101 28.2617 9.85861 28.4317C10.0662 28.6017 10.2334 28.8047 10.3603 29.0407ZM51.5251 30.9217C51.5251 31.2197 51.4681 31.5067 51.3541 31.7817C51.2401 32.0567 51.0771 32.2997 50.8671 32.5107C50.6561 32.7207 50.4131 32.8837 50.1381 32.9977C49.8631 33.1117 49.5761 33.1687 49.2781 33.1687C48.9801 33.1687 48.6941 33.1117 48.4191 32.9977C48.1431 32.8837 47.9001 32.7207 47.6901 32.5107C47.4791 32.2997 47.3171 32.0567 47.2031 31.7817C47.0891 31.5067 47.0321 31.2197 47.0321 30.9217C47.0321 30.6237 47.0891 30.3377 47.2031 30.0627C47.3171 29.7867 47.4791 29.5437 47.6901 29.3337C47.9001 29.1227 48.1431 28.9607 48.4191 28.8467C48.6941 28.7327 48.9801 28.6758 49.2781 28.6758C49.5761 28.6758 49.8631 28.7327 50.1381 28.8467C50.4131 28.9607 50.6561 29.1227 50.8671 29.3337C51.0771 29.5437 51.2401 29.7867 51.3541 30.0627C51.4681 30.3381 51.5251 30.6244 51.5251 30.9217ZM15.7879 31.3817C15.949 30.8467 15.8974 30.3338 15.6333 29.8418C15.5065 29.6058 15.3393 29.4027 15.1316 29.2327C14.924 29.0627 14.6919 28.9387 14.4352 28.8617C14.1784 28.7847 13.9166 28.7588 13.6498 28.7858C13.383 28.8128 13.1315 28.8897 12.8952 29.0167C12.659 29.1437 12.456 29.3107 12.2863 29.5177C12.1166 29.7257 11.993 29.9577 11.9157 30.2147C11.8383 30.4717 11.813 30.7327 11.8398 30.9997C11.8666 31.2667 11.9434 31.5187 12.0702 31.7547C12.3344 32.2467 12.7338 32.5727 13.2684 32.7337C13.803 32.8947 14.3163 32.8437 14.8083 32.5797C15.3002 32.3157 15.6268 31.9157 15.7879 31.3817ZM20.9066 30.6407C21.1708 31.1327 21.2225 31.6467 21.0615 32.1807C20.9005 32.7157 20.574 33.1147 20.0821 33.3797C19.8459 33.5064 19.5944 33.5831 19.3277 33.6097C19.0609 33.6367 18.7991 33.6117 18.5424 33.5337C18.2855 33.4567 18.0533 33.3337 17.8458 33.1637C17.6381 32.9937 17.4708 32.7907 17.3439 32.5547C17.0797 32.0627 17.0281 31.5497 17.1892 31.0147C17.3501 30.4807 17.6765 30.0807 18.1684 29.8167C18.6604 29.5527 19.1737 29.5007 19.7083 29.6617C20.2429 29.8227 20.6424 30.1487 20.9066 30.6407ZM57.3661 31.6467C57.3661 31.9147 57.3148 32.1727 57.2121 32.4207C57.1101 32.6687 56.9641 32.8867 56.7741 33.0767C56.5851 33.2657 56.3661 33.4127 56.1181 33.5147C55.8711 33.6177 55.6131 33.6687 55.3441 33.6687C55.0761 33.6687 54.8184 33.6174 54.5711 33.5147C54.3231 33.4127 54.1041 33.2657 53.9151 33.0767C53.7251 32.8867 53.5791 32.6687 53.4771 32.4207C53.3744 32.1727 53.3231 31.9147 53.3231 31.6467C53.3231 31.3787 53.3744 31.1211 53.4771 30.8737C53.5791 30.6257 53.7251 30.4068 53.9151 30.2168C54.1044 30.0274 54.3231 29.8814 54.5711 29.7787C54.8191 29.6767 55.0761 29.6247 55.3441 29.6247C55.6131 29.6247 55.8711 29.6767 56.1181 29.7787C56.3661 29.8817 56.5851 30.0278 56.7741 30.2168C56.9641 30.4068 57.1101 30.6257 57.2121 30.8737C57.3148 31.1211 57.3661 31.3787 57.3661 31.6467ZM26.3344 32.9818C26.4954 32.4468 26.4438 31.9338 26.1795 31.4418C26.0527 31.2058 25.8855 31.0027 25.6778 30.8327C25.4703 30.6637 25.2381 30.5398 24.9814 30.4628C24.7247 30.3848 24.463 30.3597 24.1963 30.3867C23.9295 30.4137 23.678 30.4908 23.4418 30.6178C22.95 30.8818 22.6236 31.2808 22.4626 31.8158C22.3018 32.3498 22.3534 32.8638 22.6175 33.3548C22.7445 33.5908 22.9117 33.7938 23.1193 33.9638C23.3268 34.1338 23.5589 34.2568 23.8157 34.3338C24.0724 34.4118 24.3341 34.4368 24.601 34.4098C24.8677 34.3831 25.1191 34.3064 25.3552 34.1797C25.8471 33.9147 26.1735 33.5158 26.3344 32.9818ZM31.4528 32.2417C31.5797 32.4777 31.6566 32.7294 31.6834 32.9967C31.7101 33.2627 31.6848 33.5247 31.6076 33.7817C31.5303 34.0387 31.4068 34.2707 31.2371 34.4777C31.0675 34.6857 30.8646 34.8527 30.6283 34.9797C30.3922 35.1067 30.1407 35.1837 29.8739 35.2097C29.6072 35.2367 29.3455 35.2118 29.0888 35.1348C28.832 35.0568 28.5999 34.9337 28.3924 34.7637C28.1848 34.5937 28.0176 34.3917 27.8906 34.1547C27.6265 33.6637 27.575 33.1497 27.7359 32.6157C27.8969 32.0807 28.2233 31.6817 28.7151 31.4177C28.9513 31.2907 29.2028 31.2137 29.4696 31.1867C29.7363 31.1597 29.998 31.1857 30.2547 31.2627C30.5114 31.3397 30.7436 31.4637 30.9511 31.6327C31.1588 31.8027 31.326 32.0057 31.4528 32.2417ZM35.9021 35.7807C36.1381 35.6537 36.3411 35.4867 36.5111 35.2787C36.6804 35.0714 36.804 34.8391 36.882 34.5818C36.959 34.3258 36.9841 34.0638 36.9571 33.7968C36.9311 33.5298 36.8541 33.2787 36.7271 33.0417C36.6001 32.8057 36.4331 32.6028 36.2251 32.4328C36.0171 32.2638 35.7851 32.1398 35.5291 32.0628C35.2721 31.9848 35.0101 31.9598 34.7433 31.9868C34.4765 32.0138 34.225 32.0908 33.9887 32.2168C33.7525 32.3438 33.5494 32.5117 33.3796 32.7188C33.2099 32.9268 33.0864 33.1588 33.0091 33.4158C32.9317 33.6728 32.9065 33.9338 32.9333 34.2008C32.9601 34.4678 33.0369 34.7187 33.1637 34.9557C33.2906 35.1917 33.4579 35.3948 33.6656 35.5648C33.8731 35.7338 34.1053 35.8578 34.3622 35.9348C34.6189 36.0128 34.8805 36.0378 35.147 36.0108C35.4144 35.9841 35.6661 35.9074 35.9021 35.7807ZM7.51611 33.8217C7.65711 34.0837 7.7425 34.3628 7.7723 34.6598C7.8021 34.9558 7.7741 35.2468 7.6882 35.5318C7.6023 35.8178 7.46511 36.0758 7.27661 36.3058C7.08811 36.5368 6.86261 36.7228 6.60011 36.8638C6.33771 37.0048 6.0583 37.0898 5.7619 37.1198C5.4655 37.1498 5.17461 37.1218 4.88941 37.0358C4.60411 36.9498 4.3462 36.8127 4.1155 36.6237C3.8848 36.4357 3.69901 36.2098 3.55811 35.9478C3.41711 35.6848 3.3317 35.4058 3.3019 35.1098C3.2721 34.8128 3.3001 34.5218 3.386 34.2368C3.4719 33.9518 3.6091 33.6938 3.7976 33.4628C3.9861 33.2318 4.2116 33.0467 4.474 32.9057C4.7365 32.7647 5.0159 32.6787 5.3123 32.6497C5.6087 32.6197 5.8995 32.6477 6.1848 32.7337C6.47 32.8187 6.728 32.9568 6.9586 33.1448C7.1893 33.3338 7.37511 33.5587 7.51611 33.8217ZM48.3241 35.1888C48.3241 35.4868 48.2671 35.7728 48.1531 36.0488C48.0391 36.3238 47.8771 36.5668 47.6661 36.7778C47.4561 36.9878 47.2131 37.1508 46.9381 37.2648C46.6621 37.3788 46.3761 37.4358 46.0781 37.4358C45.7801 37.4358 45.4931 37.3788 45.2181 37.2648C44.9431 37.1508 44.7001 36.9878 44.4891 36.7778C44.2791 36.5668 44.1161 36.3238 44.0021 36.0488C43.8881 35.7728 43.8311 35.4868 43.8311 35.1888C43.8311 34.8908 43.8881 34.6048 44.0021 34.3288C44.1161 34.0538 44.2791 33.8107 44.4891 33.5997C44.7001 33.3897 44.9431 33.2278 45.2181 33.1138C45.4931 32.9998 45.7801 32.9427 46.0781 32.9427C46.3761 32.9427 46.6621 32.9998 46.9381 33.1138C47.2131 33.2278 47.4561 33.3897 47.6661 33.5997C47.8771 33.8107 48.0391 34.0538 48.1531 34.3288C48.2671 34.6048 48.3241 34.8908 48.3241 35.1888ZM12.7895 34.6217C13.0832 35.1677 13.1406 35.7387 12.9619 36.3327C12.7831 36.9267 12.4206 37.3698 11.8741 37.6638C11.6117 37.8048 11.3323 37.8908 11.0359 37.9208C10.7395 37.9498 10.4487 37.9218 10.1634 37.8358C9.87812 37.7508 9.62011 37.6138 9.38941 37.4248C9.15871 37.2368 8.97291 37.0107 8.83181 36.7487C8.53821 36.2017 8.48072 35.6318 8.65952 35.0378C8.83822 34.4438 9.20082 33.9998 9.74722 33.7068C10.0097 33.5648 10.2891 33.4798 10.5855 33.4498C10.8819 33.4198 11.1727 33.4478 11.458 33.5338C11.7432 33.6198 12.0012 33.7568 12.2319 33.9458C12.4626 34.1338 12.6485 34.3587 12.7895 34.6217ZM54.1661 35.9138C54.1661 36.1818 54.1151 36.4398 54.0121 36.6868C53.9101 36.9348 53.7641 37.1538 53.5741 37.3428C53.3841 37.5328 53.1661 37.6788 52.9181 37.7818C52.6708 37.8838 52.4128 37.9348 52.1441 37.9348C51.8761 37.9348 51.6191 37.8838 51.3711 37.7818C51.1231 37.6788 50.9041 37.5328 50.7151 37.3428C50.5251 37.1538 50.3791 36.9348 50.2771 36.6868C50.1741 36.4398 50.1231 36.1818 50.1231 35.9138C50.1231 35.6458 50.1744 35.3878 50.2771 35.1398C50.3791 34.8918 50.5251 34.6737 50.7151 34.4837C50.9044 34.2944 51.1231 34.1484 51.3711 34.0458C51.6191 33.9428 51.8761 33.8918 52.1441 33.8918C52.4128 33.8918 52.6708 33.9431 52.9181 34.0458C53.1661 34.1478 53.3841 34.2947 53.5741 34.4837C53.7641 34.6737 53.9101 34.8918 54.0121 35.1398C54.1148 35.3878 54.1661 35.6458 54.1661 35.9138ZM18.0626 35.4218C18.2036 35.6848 18.289 35.9638 18.3189 36.2608C18.3487 36.5568 18.3206 36.8478 18.2347 37.1328C18.1488 37.4178 18.0116 37.6758 17.8231 37.9068C17.6346 38.1368 17.4092 38.3228 17.1468 38.4638C16.6003 38.7578 16.0301 38.8148 15.4361 38.6358C14.8422 38.4568 14.3984 38.0948 14.1049 37.5478C13.964 37.2858 13.8786 37.0057 13.8488 36.7097C13.819 36.4137 13.847 36.1228 13.9329 35.8378C14.0189 35.5524 14.156 35.2944 14.3444 35.0638C14.533 34.8328 14.7585 34.6468 15.0209 34.5058C15.5673 34.2128 16.1375 34.1558 16.7314 34.3338C17.3253 34.5128 17.7691 34.8758 18.0626 35.4218ZM23.3363 36.2218C23.4773 36.4848 23.5627 36.7638 23.5925 37.0598C23.6223 37.3568 23.5943 37.6478 23.5084 37.9328C23.4225 38.2178 23.2853 38.4758 23.0967 38.7068C22.9083 38.9368 22.6828 39.1227 22.4203 39.2637C22.1579 39.4047 21.8785 39.4908 21.5821 39.5198C21.2857 39.5498 20.9949 39.5218 20.7095 39.4358C20.4244 39.3498 20.1664 39.2127 19.9357 39.0247C19.705 38.8357 19.5191 38.6107 19.3781 38.3477C19.2373 38.0857 19.1519 37.8058 19.1221 37.5098C19.0923 37.2138 19.1203 36.9227 19.2062 36.6367C19.2921 36.3517 19.4293 36.0938 19.6177 35.8638C19.8063 35.6328 20.0318 35.4468 20.2942 35.3058C20.5567 35.1648 20.8361 35.0798 21.1325 35.0498C21.4289 35.0198 21.7197 35.0478 22.0049 35.1338C22.2902 35.2198 22.5482 35.3568 22.7787 35.5458C23.0095 35.7338 23.1953 35.9598 23.3363 36.2218ZM28.6096 37.0228C28.7506 37.2848 28.836 37.5637 28.8658 37.8607C28.8956 38.1567 28.8676 38.4478 28.7817 38.7328C28.6958 39.0178 28.5586 39.2758 28.37 39.5068C28.1816 39.7378 27.9562 39.9238 27.6938 40.0648C27.4313 40.2058 27.1518 40.2908 26.8554 40.3208C26.559 40.3508 26.2682 40.3228 25.983 40.2368C25.6977 40.1508 25.4397 40.0138 25.209 39.8248C24.9784 39.6368 24.7926 39.4108 24.6516 39.1488C24.5106 38.8858 24.4252 38.6068 24.3954 38.3098C24.3656 38.0138 24.3935 37.7228 24.4793 37.4378C24.5652 37.1528 24.7025 36.8948 24.891 36.6638C25.0795 36.4331 25.305 36.2474 25.5674 36.1068C25.8298 35.9658 26.1092 35.8797 26.4056 35.8497C26.702 35.8207 26.9929 35.8487 27.2782 35.9337C27.5634 36.0197 27.8213 36.1577 28.052 36.3457C28.2827 36.5347 28.4686 36.7598 28.6096 37.0228ZM33.8823 37.8228C34.1758 38.3688 34.2331 38.9398 34.0543 39.5338C33.8753 40.1268 33.5126 40.5708 32.9661 40.8648C32.4197 41.1578 31.8495 41.2158 31.2556 41.0368C30.6617 40.8578 30.2179 40.4948 29.9244 39.9488C29.7835 39.6858 29.6981 39.4068 29.6683 39.1098C29.6385 38.8138 29.6665 38.5227 29.7524 38.2377C29.8383 37.9527 29.9756 37.6948 30.1641 37.4638C30.3526 37.2338 30.578 37.0478 30.8405 36.9068C31.1029 36.7658 31.3823 36.6798 31.6787 36.6508C31.9751 36.6208 32.2659 36.6488 32.5511 36.7348C32.8363 36.8208 33.0942 36.9578 33.325 37.1468C33.5555 37.3348 33.7413 37.5598 33.8823 37.8228ZM4.6946 38.5908C4.8512 38.8828 4.946 39.1928 4.9791 39.5218C5.0122 39.8508 4.98109 40.1738 4.88559 40.4908C4.79019 40.8078 4.63779 41.0948 4.42829 41.3508C4.21889 41.6068 3.9684 41.8138 3.6768 41.9698C3.0697 42.2968 2.43619 42.3598 1.77629 42.1608C1.11639 41.9628 0.623396 41.5598 0.297296 40.9528C0.140696 40.6608 0.0458961 40.3508 0.0127961 40.0208C-0.020304 39.6918 0.0107943 39.3688 0.106294 39.0518C0.201694 38.7348 0.354093 38.4488 0.563593 38.1918C0.772993 37.9358 1.0235 37.7298 1.315 37.5728C1.9222 37.2468 2.55569 37.1828 3.21559 37.3818C3.87549 37.5808 4.3685 37.9838 4.6946 38.5908ZM10.1585 41.2918C10.3572 40.6318 10.2935 39.9978 9.9673 39.3908C9.6412 38.7838 9.14821 38.3808 8.48831 38.1828C7.82841 37.9838 7.1949 38.0478 6.5878 38.3738C5.9806 38.6998 5.57781 39.1928 5.37911 39.8528C5.18041 40.5128 5.24411 41.1458 5.57031 41.7528C5.89641 42.3608 6.3894 42.7628 7.0493 42.9618C7.7092 43.1608 8.3427 43.0968 8.9498 42.7708C9.5569 42.4448 9.9598 41.9518 10.1585 41.2918ZM50.9661 40.1808C50.9661 40.4488 50.9151 40.7068 50.8121 40.9538C50.7091 41.2018 50.5631 41.4208 50.3741 41.6098C50.1841 41.7998 49.9654 41.9461 49.7181 42.0488C49.4701 42.1508 49.2121 42.2018 48.9441 42.2018C48.6761 42.2018 48.4181 42.1508 48.1711 42.0488C47.9231 41.9461 47.7044 41.7998 47.5151 41.6098C47.3251 41.4208 47.1791 41.2018 47.0761 40.9538C46.9741 40.7068 46.9231 40.4488 46.9231 40.1808C46.9231 39.9128 46.9741 39.6548 47.0761 39.4068C47.1791 39.1588 47.3251 38.9408 47.5151 38.7508C47.7041 38.5618 47.9231 38.4158 48.1711 38.3128C48.4181 38.2098 48.6761 38.1588 48.9441 38.1588C49.2121 38.1588 49.4701 38.2101 49.7181 38.3128C49.9661 38.4158 50.1841 38.5618 50.3741 38.7508C50.5631 38.9408 50.7091 39.1588 50.8121 39.4068C50.9151 39.6548 50.9661 39.9128 50.9661 40.1808ZM15.2412 40.1908C15.5673 40.7978 15.631 41.4318 15.4324 42.0918C15.2337 42.7518 14.8308 43.2448 14.2237 43.5708C13.9321 43.7278 13.6217 43.8218 13.2924 43.8558C12.9631 43.8888 12.64 43.8578 12.3231 43.7618C12.0062 43.6668 11.7197 43.5138 11.4634 43.3048C11.2071 43.0948 11.0007 42.8448 10.8441 42.5538C10.6875 42.2618 10.5926 41.9508 10.5595 41.6218C10.5263 41.2928 10.5575 40.9698 10.6529 40.6528C10.7483 40.3358 10.9007 40.0488 11.1101 39.7928C11.3195 39.5368 11.57 39.3298 11.8616 39.1738C12.1531 39.0168 12.4635 38.9218 12.7928 38.8888C13.1221 38.8558 13.4452 38.8868 13.7621 38.9828C14.079 39.0778 14.3655 39.2298 14.6217 39.4398C14.8781 39.6488 15.0846 39.8998 15.2412 40.1908ZM19.4963 44.3708C19.7879 44.2138 20.0384 44.0078 20.2477 43.7518C20.4573 43.4958 20.6097 43.2088 20.7051 42.8918C20.8005 42.5748 20.8317 42.2518 20.7987 41.9228C20.7655 41.5938 20.6706 41.2828 20.514 40.9918C20.188 40.3838 19.695 39.9818 19.035 39.7828C18.3752 39.5838 17.7417 39.6478 17.1346 39.9738C16.843 40.1308 16.5925 40.3368 16.383 40.5928C16.1736 40.8488 16.0212 41.1358 15.9258 41.4528C15.8303 41.7698 15.7991 42.0928 15.8322 42.4218C15.8654 42.7508 15.9602 43.0618 16.1167 43.3528C16.4428 43.9608 16.9359 44.3628 17.5959 44.5618C18.2557 44.7608 18.8892 44.6968 19.4963 44.3708ZM25.7872 41.7918C26.1133 42.3988 26.1771 43.0318 25.9784 43.6918C25.7796 44.3518 25.3767 44.8448 24.7696 45.1708C24.4781 45.3278 24.1677 45.4228 23.8384 45.4558C23.5091 45.4888 23.186 45.4578 22.8691 45.3618C22.5522 45.2668 22.2656 45.1148 22.0093 44.9048C21.7531 44.6958 21.5467 44.4448 21.39 44.1538C21.0639 43.5468 21.0002 42.9128 21.1989 42.2528C21.3975 41.5928 21.8004 41.0998 22.4075 40.7738C22.6991 40.6168 23.0096 40.5228 23.3389 40.4888C23.6682 40.4558 23.9913 40.4868 24.3081 40.5828C24.625 40.6778 24.9115 40.8308 25.1678 41.0398C25.4241 41.2498 25.6306 41.4998 25.7872 41.7918ZM31.2526 44.4918C31.4512 43.8318 31.3873 43.1988 31.0611 42.5918C30.7349 41.9838 30.2418 41.5818 29.5818 41.3828C28.9218 41.1838 28.2883 41.2478 27.6812 41.5738C27.3896 41.7308 27.1391 41.9378 26.9297 42.1938C26.7203 42.4498 26.5679 42.7368 26.4725 43.0538C26.3772 43.3708 26.346 43.6938 26.3792 44.0228C26.4123 44.3518 26.5072 44.6628 26.6639 44.9538C26.9901 45.5608 27.4832 45.9638 28.1432 46.1628C28.8031 46.3618 29.4367 46.2978 30.044 45.9708C30.6511 45.6448 31.0539 45.1518 31.2526 44.4918ZM50.1471 50.9158C50.3171 50.6318 50.4261 50.3261 50.4741 49.9988C50.5221 49.6718 50.5061 49.3478 50.4251 49.0268C50.3451 48.7058 50.2061 48.4128 50.0081 48.1468C49.8111 47.8808 49.5701 47.6638 49.2861 47.4938C49.0021 47.3238 48.6961 47.2148 48.3691 47.1668C48.0411 47.1188 47.7171 47.1348 47.3961 47.2158C47.0754 47.2965 46.7824 47.4355 46.5171 47.6328C46.2511 47.8298 46.0331 48.0708 45.8631 48.3548C45.6941 48.6388 45.5851 48.9448 45.5361 49.2718C45.4881 49.5998 45.5051 49.9238 45.5851 50.2448C45.6661 50.5658 45.8051 50.8588 46.0021 51.1238C46.2001 51.3898 46.4411 51.6078 46.7251 51.7778C47.0091 51.9468 47.3151 52.0558 47.6421 52.1048C47.9691 52.1528 48.2931 52.1368 48.6141 52.0558C48.9351 51.9748 49.2281 51.8358 49.4941 51.6388C49.7601 51.4408 49.9771 51.1998 50.1471 50.9158ZM43.4021 47.6058C43.6581 47.7588 43.8751 47.9538 44.0531 48.1928C44.2301 48.4318 44.3551 48.6958 44.4281 48.9848C44.5011 49.2738 44.5161 49.5658 44.4721 49.8608C44.4291 50.1548 44.3311 50.4298 44.1781 50.6858C44.0251 50.9418 43.8291 51.1578 43.5901 51.3358C43.3511 51.5138 43.0871 51.6388 42.7981 51.7118C42.5101 51.7838 42.2181 51.7988 41.9231 51.7558C41.6281 51.7128 41.3531 51.6138 41.0981 51.4618C40.8421 51.3088 40.6251 51.1128 40.4471 50.8738C40.2701 50.6348 40.1451 50.3708 40.0721 50.0818C39.9991 49.7928 39.9841 49.5008 40.0281 49.2068C40.0711 48.9118 40.1691 48.6368 40.3221 48.3808C40.4751 48.1248 40.6711 47.9088 40.9101 47.7308C41.1491 47.5528 41.4131 47.4278 41.7021 47.3548C41.9901 47.2828 42.2821 47.2678 42.5771 47.3108C42.8721 47.3548 43.1471 47.4528 43.4021 47.6058ZM37.5331 47.6958C38.0121 47.9818 38.3191 48.3958 38.4561 48.9378C38.5921 49.4788 38.517 49.9898 38.23 50.4688C37.943 50.9478 37.5291 51.2558 36.9881 51.3918C36.4461 51.5278 35.9361 51.4528 35.4571 51.1658C34.9776 50.8798 34.6699 50.4658 34.5337 49.9238C34.3975 49.3828 34.4727 48.8718 34.7592 48.3928C35.0461 47.9138 35.4601 47.6058 36.0011 47.4698C36.5431 47.3338 37.0531 47.4088 37.5331 47.6958ZM51.3061 52.4298C51.5891 52.5998 51.8301 52.8178 52.0281 53.0828C52.2251 53.3488 52.3641 53.6418 52.4451 53.9628C52.5261 54.2838 52.5421 54.6078 52.4941 54.9358C52.4461 55.2628 52.3371 55.5688 52.1671 55.8528C51.9971 56.1368 51.7791 56.3768 51.5141 56.5748C51.2481 56.7721 50.9547 56.9111 50.6341 56.9918C50.3131 57.0728 49.9891 57.0888 49.6621 57.0408C49.3341 56.9928 49.0281 56.8838 48.7441 56.7138C48.4601 56.5438 48.2201 56.3258 48.0221 56.0608C47.8251 55.7948 47.6861 55.5018 47.6051 55.1808C47.5241 54.8598 47.5081 54.5358 47.5561 54.2088C47.6041 53.8808 47.7131 53.5758 47.8831 53.2908C48.0531 53.0068 48.2701 52.7668 48.5361 52.5688C48.8021 52.3718 49.0951 52.2328 49.4161 52.1518C49.7371 52.0708 50.0611 52.0548 50.3881 52.1028C50.7161 52.1508 51.0211 52.2598 51.3061 52.4298ZM45.4231 52.5428C45.9551 52.8608 46.2961 53.3208 46.4481 53.9218C46.5991 54.5228 46.5151 55.0898 46.1971 55.6218C45.8791 56.1548 45.4191 56.4958 44.8181 56.6478C44.2161 56.7988 43.6491 56.7158 43.1171 56.3968C42.5851 56.0788 42.2431 55.6188 42.0921 55.0178C41.9411 54.4158 42.0241 53.8488 42.3431 53.3168C42.6611 52.7848 43.1211 52.4428 43.7221 52.2918C44.3231 52.1408 44.8901 52.2238 45.4231 52.5428ZM40.2491 55.4058C40.3871 55.1748 40.4751 54.9278 40.5141 54.6628C40.5531 54.3968 40.5401 54.1348 40.4751 53.8748C40.4101 53.6148 40.2971 53.3768 40.1371 53.1618C39.9771 52.9468 39.7821 52.7708 39.5521 52.6328C39.3221 52.4948 39.0741 52.4068 38.8091 52.3678C38.5441 52.3288 38.281 52.3418 38.021 52.4078C37.761 52.4728 37.5241 52.5858 37.3091 52.7458C37.0941 52.9048 36.9171 53.0998 36.7801 53.3298C36.6421 53.5608 36.5541 53.8078 36.5151 54.0728C36.4761 54.3388 36.4891 54.6008 36.5541 54.8608C36.6201 55.1208 36.7321 55.3588 36.8921 55.5738C37.0521 55.7888 37.2471 55.9648 37.4771 56.1028C37.7071 56.2401 37.9547 56.3285 38.2201 56.3678C38.4851 56.4068 38.748 56.3938 39.008 56.3278C39.268 56.2628 39.5051 56.1498 39.7201 55.9898C39.9361 55.8308 40.1121 55.6358 40.2491 55.4058ZM54.4651 58.8998C54.2964 58.2311 53.9164 57.7201 53.3251 57.3668C52.7341 57.0128 52.1041 56.9198 51.4351 57.0878C50.7671 57.2558 50.2561 57.6358 49.9021 58.2278C49.5491 58.8188 49.4561 59.4488 49.6241 60.1168C49.7921 60.7858 50.1721 61.2968 50.7641 61.6508C51.3551 62.0038 51.9851 62.0968 52.6531 61.9288C53.3221 61.7608 53.8331 61.3808 54.1861 60.7888C54.5401 60.1978 54.6331 59.5678 54.4651 58.8998ZM47.4421 57.4788C47.9741 57.7968 48.3161 58.2568 48.4671 58.8578C48.6191 59.4598 48.5351 60.0268 48.2171 60.5588C47.8991 61.0918 47.4391 61.4338 46.8371 61.5848C46.2361 61.7358 45.6691 61.6528 45.1361 61.3338C44.6041 61.0158 44.2621 60.5558 44.1111 59.9548C43.9601 59.3528 44.0431 58.7858 44.3611 58.2538C44.6801 57.7208 45.1401 57.3798 45.7411 57.2278C46.3431 57.0768 46.9101 57.1598 47.4421 57.4788ZM41.5721 57.5688C41.8021 57.7058 41.9971 57.8828 42.1571 58.0978C42.3171 58.3128 42.4301 58.5508 42.4951 58.8108C42.5601 59.0708 42.5741 59.3338 42.5351 59.5988C42.4961 59.8638 42.4071 60.1118 42.2701 60.3418C42.1321 60.5718 41.9551 60.7668 41.7401 60.9268C41.5251 61.0868 41.2871 61.1998 41.0271 61.2648C40.7671 61.3308 40.5051 61.3438 40.2391 61.3048C39.9741 61.2648 39.7261 61.1768 39.4961 61.0398C39.2661 60.9018 39.0711 60.7248 38.9111 60.5098C38.7511 60.2948 38.6391 60.0568 38.5731 59.7968C38.5081 59.5368 38.4951 59.2748 38.5341 59.0088C38.5731 58.7438 38.6611 58.4958 38.7991 58.2658C38.9361 58.0358 39.1131 57.8408 39.3281 57.6808C39.5431 57.5208 39.7811 57.4078 40.0411 57.3428C40.3011 57.2778 40.5641 57.2648 40.8291 57.3038C41.0944 57.3425 41.3421 57.4308 41.5721 57.5688ZM55.3461 62.3028C55.6301 62.4728 55.8701 62.6908 56.0681 62.9568C56.2651 63.2218 56.4041 63.5158 56.4851 63.8368C56.5661 64.1578 56.5821 64.4818 56.5341 64.8088C56.4851 65.1368 56.3761 65.4418 56.2071 65.7258C56.0371 66.0098 55.8191 66.2508 55.5531 66.4488C55.2871 66.6458 54.9941 66.7848 54.6731 66.8658C54.3521 66.9458 54.0281 66.9628 53.7001 66.9148C53.3731 66.8658 53.0671 66.7568 52.7831 66.5868C52.4991 66.4168 52.2591 66.1998 52.0611 65.9338C51.8641 65.6678 51.7251 65.3748 51.6441 65.0538C51.5631 64.7328 51.5471 64.4088 51.5951 64.0808C51.6441 63.7538 51.7531 63.4478 51.9221 63.1638C52.0921 62.8798 52.3101 62.6388 52.5761 62.4418C52.8411 62.2448 53.1351 62.1058 53.4561 62.0248C53.7771 61.9438 54.1011 61.9278 54.4281 61.9758C54.7561 62.0238 55.0621 62.1328 55.3461 62.3028ZM49.4621 62.4148C49.7171 62.5678 49.9341 62.7638 50.1121 63.0028C50.2891 63.2418 50.4151 63.5058 50.4871 63.7948C50.5601 64.0838 50.5751 64.3758 50.5311 64.6698C50.4881 64.9648 50.3901 65.2398 50.2371 65.4958C50.0841 65.7508 49.8881 65.9678 49.6491 66.1458C49.4101 66.3228 49.1461 66.4478 48.8571 66.5208C48.5681 66.5938 48.2761 66.6088 47.9821 66.5648C47.6871 66.5218 47.4121 66.4238 47.1561 66.2708C46.9011 66.1178 46.6841 65.9218 46.5061 65.6828C46.3291 65.4438 46.2031 65.1798 46.1311 64.8908C46.0581 64.6018 46.0431 64.3098 46.0871 64.0158C46.1301 63.7208 46.2281 63.4458 46.3811 63.1898C46.5341 62.9348 46.7301 62.7178 46.9691 62.5398C47.2081 62.3628 47.4721 62.2368 47.7611 62.1648C48.0501 62.0918 48.3421 62.0768 48.6361 62.1208C48.9311 62.1638 49.2061 62.2618 49.4621 62.4148ZM44.5141 63.7478C44.3781 63.2058 44.0701 62.7918 43.5911 62.5048C43.1121 62.2188 42.6021 62.1438 42.0601 62.2798C41.5191 62.4158 41.1051 62.7238 40.8181 63.2028C40.5311 63.6818 40.4561 64.1918 40.5921 64.7338C40.7291 65.2748 41.0361 65.6898 41.5161 65.9758C41.9951 66.2628 42.5051 66.3378 43.0471 66.2018C43.5881 66.0658 44.0021 65.7578 44.2891 65.2788C44.5751 64.7988 44.6511 64.2888 44.5141 63.7478ZM57.3641 67.2388C57.6481 67.4088 57.8891 67.6268 58.0861 67.8918C58.2841 68.1578 58.4231 68.4508 58.5041 68.7718C58.5851 69.0928 58.6011 69.4168 58.5531 69.7438C58.5051 70.0718 58.3961 70.3768 58.2261 70.6618C58.0561 70.9458 57.8381 71.1858 57.5731 71.3838C57.3071 71.5808 57.0141 71.7198 56.6931 71.8008C56.3721 71.8818 56.0481 71.8978 55.7211 71.8498C55.3931 71.8018 55.0871 71.6928 54.8031 71.5228C54.5191 71.3528 54.2791 71.1358 54.0811 70.8698C53.8841 70.6048 53.7451 70.3108 53.6641 69.9898C53.5831 69.6698 53.5671 69.3448 53.6151 69.0178C53.6631 68.6898 53.7721 68.3848 53.9421 68.1008C54.1121 67.8168 54.3291 67.5758 54.5951 67.3788C54.8601 67.1808 55.1541 67.0418 55.4751 66.9608C55.7961 66.8798 56.1201 66.8638 56.4471 66.9118C56.7741 66.9598 57.0801 67.0688 57.3641 67.2388ZM52.2561 70.4318C52.4091 70.1758 52.5071 69.9008 52.5501 69.6068C52.5941 69.3118 52.5791 69.0198 52.5061 68.7308C52.4341 68.4428 52.3081 68.1788 52.1311 67.9398C51.9531 67.7008 51.7361 67.5048 51.4811 67.3518C51.2251 67.1988 50.9501 67.1008 50.6551 67.0568C50.3611 67.0138 50.0691 67.0288 49.7801 67.1008C49.4911 67.1738 49.2271 67.2988 48.9881 67.4768C48.7491 67.6548 48.5541 67.8708 48.4011 68.1268C48.2481 68.3828 48.1501 68.6578 48.1061 68.9518C48.0631 69.2468 48.0781 69.5388 48.1501 69.8278C48.2231 70.1158 48.3481 70.3798 48.5261 70.6188C48.7031 70.8578 48.9201 71.0538 49.1761 71.2068C49.4311 71.3598 49.7071 71.4578 50.0011 71.5008C50.2961 71.5448 50.5881 71.5298 50.8761 71.4578C51.1651 71.3848 51.4291 71.2598 51.6681 71.0818C51.9071 70.9038 52.1031 70.6878 52.2561 70.4318ZM45.6111 67.4418C45.8411 67.5798 46.0361 67.7558 46.1961 67.9708C46.3561 68.1858 46.4681 68.4238 46.5341 68.6838C46.5991 68.9438 46.6121 69.2058 46.5731 69.4718C46.5341 69.7368 46.4461 69.9838 46.3081 70.2148C46.0221 70.6938 45.6081 71.0008 45.0671 71.1378C44.5251 71.2738 44.0151 71.1988 43.5361 70.9118C43.3061 70.7748 43.1111 70.5978 42.9511 70.3828C42.7911 70.1678 42.6781 69.9298 42.6131 69.6708C42.5471 69.4098 42.5341 69.1478 42.5731 68.8828C42.6121 68.6178 42.7011 68.3698 42.8381 68.1398C43.1251 67.6608 43.5391 67.3528 44.0801 67.2168C44.6211 67.0808 45.1321 67.1558 45.6111 67.4418ZM59.3841 72.1758C59.6681 72.3458 59.9091 72.5638 60.1061 72.8288C60.3041 73.0948 60.4431 73.3878 60.5241 73.7088C60.6041 74.0298 60.6211 74.3538 60.5721 74.6818C60.5241 75.0088 60.4151 75.3148 60.2451 75.5988C59.8921 76.1898 59.3811 76.5698 58.7121 76.7378C58.0441 76.9058 57.4141 76.8131 56.8221 76.4598C56.5381 76.2898 56.2981 76.0718 56.1001 75.8068C55.9031 75.5408 55.7641 75.2478 55.6831 74.9268C55.6021 74.6058 55.5861 74.2818 55.6341 73.9538C55.6831 73.6268 55.7921 73.3208 55.9611 73.0368C56.3151 72.4458 56.8261 72.0658 57.4941 71.8978C58.1631 71.7298 58.7931 71.8218 59.3841 72.1758ZM53.5011 72.2878C53.7571 72.4398 53.9741 72.6358 54.1511 72.8758C54.3291 73.1148 54.4541 73.3788 54.5271 73.6678C54.6001 73.9558 54.6141 74.2478 54.5711 74.5428C54.5271 74.8378 54.4291 75.1128 54.2771 75.3688C54.1241 75.6238 53.9281 75.8408 53.6881 76.0188C53.4491 76.1958 53.1851 76.3218 52.8961 76.3938C52.6081 76.4668 52.3161 76.4818 52.0211 76.4378C51.7261 76.3948 51.4511 76.2968 51.1961 76.1438C50.9401 75.9908 50.7231 75.7948 50.5451 75.5558C50.3681 75.3168 50.2421 75.0528 50.1701 74.7638C50.0971 74.4748 50.0831 74.1828 50.1261 73.8878C50.1691 73.5938 50.2671 73.3178 50.4201 73.0628C50.5731 72.8068 50.7691 72.5898 51.0081 72.4128C51.2471 72.2348 51.5111 72.1098 51.8001 72.0368C52.0891 71.9638 52.3811 71.9498 52.6761 71.9928C52.9701 72.0368 53.2461 72.1348 53.5011 72.2878ZM47.6311 72.3778C47.8611 72.5158 48.0561 72.6918 48.2161 72.9078C48.3761 73.1228 48.4881 73.3598 48.5541 73.6198C48.6191 73.8798 48.6321 74.1428 48.5931 74.4078C48.5541 74.6728 48.4661 74.9208 48.3281 75.1508C48.0421 75.6298 47.6281 75.9378 47.0871 76.0738C46.5451 76.2108 46.0351 76.1348 45.5551 75.8488C45.3251 75.7108 45.1301 75.5348 44.9701 75.3198C44.8101 75.1048 44.6981 74.8668 44.6321 74.6068C44.5671 74.3468 44.5541 74.0838 44.5931 73.8188C44.6321 73.5538 44.7201 73.3058 44.8581 73.0758C45.1441 72.5968 45.5581 72.2888 46.1001 72.1528C46.6411 72.0168 47.1511 72.0918 47.6311 72.3778Z" fill="#5887A7"/>
</svg>
