<svg width="137" height="44" viewBox="0 0 137 44" fill="none" xmlns="http://www.w3.org/2000/svg">
<path d="M23.5942 10.0267L31.7492 10.0686C31.8389 10.0702 31.9273 10.0872 32.009 10.1186C32.0908 10.15 32.1643 10.1953 32.2254 10.2516C41.9355 19.1938 33.7925 34.0922 21.4665 37.2455C14.2216 39.0967 5.59034 36.7749 1.15417 30.9023C1.0417 30.7559 0.985405 30.5973 0.985405 30.4264C0.981427 20.8428 0.981427 11.2643 0.985405 1.69114C0.985405 0.519766 1.78102 -0.0972979 3.14924 0.0125187C8.6543 0.455271 12.5801 2.8538 14.9268 7.20809C15.0112 7.36497 15.1538 7.44342 15.3547 7.44342C18.1273 7.43296 22.2139 6.69562 23.2144 9.77571C23.2707 9.94305 23.3973 10.0267 23.5942 10.0267ZM22.3827 33.7471C18.8144 32.1678 16.4155 29.3387 16.1262 25.8298C16.1142 25.6555 16.1705 25.5004 16.295 25.3644C17.0746 24.5347 17.9746 24.4301 18.9953 25.0507C19.164 25.1552 19.2645 25.2964 19.2966 25.4742C19.9034 28.8315 22.0994 30.9215 25.8846 31.7442C26.036 31.7763 26.1944 31.7744 26.3451 31.7387C26.4958 31.703 26.6339 31.6348 26.7465 31.5403C31.6046 27.4928 34.7509 21.3587 32.4786 15.5123C32.4062 15.3311 32.2616 15.2665 32.0446 15.3188C29.497 15.9673 27.9138 15.1864 27.295 12.9761C27.2588 12.861 27.1725 12.8035 27.0358 12.8035H21.2857C21.0758 12.8034 20.8718 12.7344 20.7131 12.61C20.042 12.0906 19.8009 11.4317 19.9898 10.6333C19.9988 10.5953 19.9981 10.5559 19.9877 10.5182C19.9773 10.4804 19.9575 10.4453 19.9299 10.4152C19.9021 10.3851 19.8672 10.361 19.8275 10.3444C19.7878 10.3279 19.7444 10.3194 19.7005 10.3196L13.866 10.3143C13.5204 10.3146 13.1836 10.2208 12.9034 10.0462C12.6232 9.87162 12.4138 9.62515 12.3049 9.34167C11.0472 6.05068 8.48952 3.94848 4.63198 3.03509C4.41102 2.98279 4.30047 3.05601 4.30047 3.25472V29.6891C4.30065 29.8709 4.37811 30.0445 4.51746 30.1754C9.37554 34.8296 15.3206 36.1299 22.3525 34.0765C22.3918 34.0661 22.4265 34.0456 22.4522 34.0178C22.4778 33.99 22.4933 33.9562 22.4965 33.9207C22.4998 33.8852 22.4906 33.8497 22.4704 33.8187C22.4501 33.7878 22.4195 33.7628 22.3827 33.7471Z" fill="#252C34"/>
<path d="M14.9581 19.6278C16.6824 19.6278 18.0803 18.4151 18.0803 16.919C18.0803 15.423 16.6824 14.2102 14.9581 14.2102C13.2338 14.2102 11.8359 15.423 11.8359 16.919C11.8359 18.4151 13.2338 19.6278 14.9581 19.6278Z" fill="#252C34"/>
<path d="M1.21566 33.7104C7.32745 38.7986 15.3499 40.4301 23.3784 38.1972C23.6195 38.1275 23.74 38.2025 23.74 38.4221V42.4696C23.7397 42.5472 23.7091 42.6225 23.6534 42.6832C23.5976 42.744 23.5198 42.7866 23.4326 42.8043C15.3559 44.523 7.92012 43.4039 1.12525 39.447C1.03605 39.3953 0.962996 39.3253 0.912547 39.2432C0.862037 39.1611 0.835758 39.0694 0.835938 38.9764V33.8516C0.835938 33.5448 0.962514 33.4978 1.21566 33.7104Z" fill="#DF4C2C"/>
<path d="M45 14H57.0203V19.0909H50.7225V21.4394H56.5041V26.5152H50.7225V34H45V14ZM59.3083 14H68.0396C69.2195 14 70.2619 14.2576 71.1664 14.7727C72.071 15.2778 72.7789 16.0051 73.2902 16.9545C73.8016 17.8939 74.0571 19.0101 74.0571 20.303C74.0571 21.5858 73.8506 22.6263 73.4377 23.4242C73.0346 24.2121 72.5479 24.803 71.9775 25.197C71.4073 25.5909 70.8813 25.8434 70.3994 25.9545L75.06 34H68.6591L64.6474 26.4091H65.0309V34H59.3083V14ZM65.0309 22.4394H65.9748C66.496 22.4394 66.9925 22.3131 67.4644 22.0606C67.9463 21.8081 68.1871 21.2879 68.1871 20.5C68.1871 19.7121 67.9561 19.1919 67.4939 18.9394C67.0319 18.6869 66.5402 18.5606 66.019 18.5606H65.0309V22.4394ZM82.8573 14H88.4471L96.4705 34H90.3792L89.1403 30.5303H82.1936L80.94 34H74.834L82.8573 14ZM84.111 25.4394H87.223L85.6891 21.0303H85.6448L84.111 25.4394ZM102.933 19.3333L103.361 19.4091V34H97.6529V14H105.367L111.723 28.5455L111.296 28.6364V14H117.003V34H109.245L102.933 19.3333ZM129.994 23.5L137 34H130.201L125.083 25.5909V34H119.375V14H125.083V21.5151L129.714 14H136.13L129.994 23.5Z" fill="black"/>
</svg>
