<svg width="90" height="16" viewBox="0 0 90 16" fill="none" xmlns="http://www.w3.org/2000/svg">
<path d="M2.40234 13.3496C1.19792 12.1973 0.595703 10.4167 0.595703 8.00781C0.595703 5.59245 1.19792 3.80859 2.40234 2.65625C3.61328 1.4974 5.42643 0.917969 7.8418 0.917969H10.0195C11.4974 0.917969 12.8027 1.30208 13.9355 2.07031C15.0749 2.83854 15.6445 3.88997 15.6445 5.22461C15.6445 5.60872 15.5306 5.88542 15.3027 6.05469C15.0749 6.21745 14.8535 6.29883 14.6387 6.29883H13.4766C12.8776 6.29883 12.4121 5.94076 12.0801 5.22461C11.5983 4.19596 10.7975 3.68164 9.67773 3.68164H7.93945C6.51367 3.68164 5.54688 3.98763 5.03906 4.59961C4.53125 5.21159 4.27734 6.3444 4.27734 7.99805C4.27734 9.65169 4.53125 10.7878 5.03906 11.4062C5.54688 12.0182 6.51367 12.3242 7.93945 12.3242H9.88281C11.0026 12.3242 11.8001 11.8099 12.2754 10.7812C12.6074 10.0586 13.0762 9.69727 13.6816 9.69727H14.8438C15.1497 9.69727 15.3906 9.8112 15.5664 10.0391C15.7487 10.2669 15.8398 10.5143 15.8398 10.7812C15.8398 12.1159 15.2734 13.1673 14.1406 13.9355C13.0078 14.6973 11.7025 15.0781 10.2246 15.0781H7.8418C5.42643 15.0781 3.61328 14.502 2.40234 13.3496ZM18.4668 13.7891C17.4512 12.8516 16.9434 11.4714 16.9434 9.64844C16.9434 7.81901 17.4512 6.4388 18.4668 5.50781C19.4824 4.57031 20.9408 4.10156 22.8418 4.10156C24.7493 4.10156 26.2109 4.57031 27.2266 5.50781C28.2422 6.4388 28.75 7.81901 28.75 9.64844C28.75 11.4714 28.2422 12.8516 27.2266 13.7891C26.2109 14.7266 24.7493 15.1953 22.8418 15.1953C20.9408 15.1953 19.4824 14.7266 18.4668 13.7891ZM20.9375 7.10938C20.5339 7.63672 20.332 8.47982 20.332 9.63867C20.332 10.7975 20.5339 11.6439 20.9375 12.1777C21.3411 12.7116 21.9759 12.9785 22.8418 12.9785C23.7142 12.9785 24.3522 12.7116 24.7559 12.1777C25.166 11.6439 25.3711 10.7975 25.3711 9.63867C25.3711 8.47982 25.166 7.63672 24.7559 7.10938C24.3522 6.58203 23.7142 6.31836 22.8418 6.31836C21.9759 6.31836 21.3411 6.58203 20.9375 7.10938ZM30.5566 14.4043V4.90234C30.5566 4.72656 30.612 4.58333 30.7227 4.47266C30.8398 4.35547 30.9831 4.29688 31.1523 4.29688H33.3398C33.5091 4.29688 33.6491 4.35547 33.7598 4.47266C33.877 4.58333 33.9355 4.72656 33.9355 4.90234V5.51758C35.0553 4.57357 36.2467 4.10156 37.5098 4.10156C38.7793 4.10156 39.8112 4.48893 40.6055 5.26367C41.3997 6.0319 41.7969 7.21029 41.7969 8.79883V14.4043C41.7969 14.5736 41.7383 14.7168 41.6211 14.834C41.5104 14.9447 41.3672 15 41.1914 15H39.0137C38.8444 15 38.7012 14.9447 38.584 14.834C38.4733 14.7168 38.418 14.5736 38.418 14.4043V8.79883C38.418 7.24284 37.7962 6.46484 36.5527 6.46484C35.7389 6.46484 34.8665 6.93034 33.9355 7.86133V14.4043C33.9355 14.5736 33.877 14.7168 33.7598 14.834C33.6491 14.9447 33.5091 15 33.3398 15H31.1523C30.9831 15 30.8398 14.9447 30.7227 14.834C30.612 14.7168 30.5566 14.5736 30.5566 14.4043ZM49.3066 12.8809L50.6445 12.7637H51.0059C51.1816 12.7637 51.3249 12.819 51.4355 12.9297C51.5527 13.0404 51.6113 13.1836 51.6113 13.3594V14.4043C51.6113 14.5475 51.5527 14.6777 51.4355 14.7949C51.3249 14.9056 51.1816 14.974 51.0059 15C50.3418 15.1302 49.4759 15.1953 48.4082 15.1953C45.6087 15.1953 44.209 13.7305 44.209 10.8008V1.60156C44.209 1.42578 44.2643 1.28255 44.375 1.17188C44.4922 1.05469 44.6354 0.996094 44.8047 0.996094H46.9922C47.1615 0.996094 47.3014 1.05469 47.4121 1.17188C47.5293 1.28255 47.5879 1.42578 47.5879 1.60156V4.86328H50.3125C50.4818 4.86328 50.6217 4.91862 50.7324 5.0293C50.8496 5.13997 50.9082 5.2832 50.9082 5.45898V6.62109C50.9082 6.79688 50.8496 6.9401 50.7324 7.05078C50.6217 7.16146 50.4818 7.2168 50.3125 7.2168H47.5879V10.8008C47.5879 11.4648 47.7441 11.9792 48.0566 12.3438C48.3691 12.7018 48.7858 12.8809 49.3066 12.8809ZM54.0137 13.7695C53.0111 12.819 52.5098 11.4518 52.5098 9.66797C52.5098 7.8776 53.0143 6.50391 54.0234 5.54688C55.0326 4.58333 56.4323 4.10156 58.2227 4.10156C60.013 4.10156 61.4095 4.57031 62.4121 5.50781C63.4147 6.4388 63.916 7.77669 63.916 9.52148V10.0781C63.916 10.2539 63.8574 10.4004 63.7402 10.5176C63.6296 10.6283 63.4863 10.6836 63.3105 10.6836H55.957C56.0221 11.4844 56.25 12.0671 56.6406 12.4316C57.0378 12.7962 57.6693 12.9785 58.5352 12.9785C59.401 12.9785 59.9935 12.7832 60.3125 12.3926C60.6315 12.002 61.0254 11.8034 61.4941 11.7969H62.9492C63.125 11.7969 63.2682 11.8555 63.3789 11.9727C63.4961 12.0833 63.5547 12.2266 63.5547 12.4023C63.5547 14.2708 61.7741 15.2018 58.2129 15.1953C56.416 15.1953 55.0163 14.7201 54.0137 13.7695ZM55.9375 8.62305H60.4785C60.4134 7.08659 59.6582 6.31836 58.2129 6.31836C56.7741 6.31836 56.0156 7.08659 55.9375 8.62305ZM64.6582 14.6973C64.6322 14.6322 64.6191 14.554 64.6191 14.4629C64.6191 14.3652 64.6712 14.2578 64.7754 14.1406L68.1738 9.63867L65 5.15625C64.7917 4.88281 64.7786 4.64193 64.9609 4.43359C65.0391 4.34245 65.1497 4.29688 65.293 4.29688H67.4121C68.0436 4.29688 68.5514 4.58333 68.9355 5.15625L70.5566 7.61719L72.1777 5.15625C72.5618 4.58333 73.0697 4.29688 73.7012 4.29688H75.8203C75.9635 4.29688 76.0742 4.34245 76.1523 4.43359C76.3346 4.64193 76.3216 4.88281 76.1133 5.15625L72.9395 9.63867L76.3379 14.1406C76.4421 14.2578 76.4941 14.3685 76.4941 14.4727C76.4941 14.5703 76.4811 14.6452 76.4551 14.6973C76.403 14.8991 76.263 15 76.0352 15H73.9551C73.3561 15 72.8483 14.7135 72.4316 14.1406L70.5566 11.6016L68.6719 14.1406C68.2617 14.7135 67.7572 15 67.1582 15H65.0781C64.8503 15 64.7103 14.8991 64.6582 14.6973ZM78.7207 13.7891C77.7051 12.8516 77.1973 11.4714 77.1973 9.64844C77.1973 7.81901 77.7051 6.4388 78.7207 5.50781C79.7363 4.57031 81.1947 4.10156 83.0957 4.10156C85.0033 4.10156 86.4648 4.57031 87.4805 5.50781C88.4961 6.4388 89.0039 7.81901 89.0039 9.64844C89.0039 11.4714 88.4961 12.8516 87.4805 13.7891C86.4648 14.7266 85.0033 15.1953 83.0957 15.1953C81.1947 15.1953 79.7363 14.7266 78.7207 13.7891ZM81.1914 7.10938C80.7878 7.63672 80.5859 8.47982 80.5859 9.63867C80.5859 10.7975 80.7878 11.6439 81.1914 12.1777C81.5951 12.7116 82.2298 12.9785 83.0957 12.9785C83.9681 12.9785 84.6061 12.7116 85.0098 12.1777C85.4199 11.6439 85.625 10.7975 85.625 9.63867C85.625 8.47982 85.4199 7.63672 85.0098 7.10938C84.6061 6.58203 83.9681 6.31836 83.0957 6.31836C82.2298 6.31836 81.5951 6.58203 81.1914 7.10938Z" fill="black"/>
</svg>
