<svg width="149" height="46" viewBox="0 0 149 46" fill="none" xmlns="http://www.w3.org/2000/svg">
<path d="M47.4023 27.3496C46.1979 26.1973 45.5957 24.4167 45.5957 22.0078C45.5957 19.5924 46.1979 17.8086 47.4023 16.6562C48.6133 15.4974 50.4264 14.918 52.8418 14.918H55.0195C56.4974 14.918 57.8027 15.3021 58.9355 16.0703C60.0749 16.8385 60.6445 17.89 60.6445 19.2246C60.6445 19.6087 60.5306 19.8854 60.3027 20.0547C60.0749 20.2174 59.8535 20.2988 59.6387 20.2988H58.4766C57.8776 20.2988 57.4121 19.9408 57.0801 19.2246C56.5983 18.196 55.7975 17.6816 54.6777 17.6816H52.9395C51.5137 17.6816 50.5469 17.9876 50.0391 18.5996C49.5312 19.2116 49.2773 20.3444 49.2773 21.998C49.2773 23.6517 49.5312 24.7878 50.0391 25.4062C50.5469 26.0182 51.5137 26.3242 52.9395 26.3242H54.8828C56.0026 26.3242 56.8001 25.8099 57.2754 24.7812C57.6074 24.0586 58.0762 23.6973 58.6816 23.6973H59.8438C60.1497 23.6973 60.3906 23.8112 60.5664 24.0391C60.7487 24.2669 60.8398 24.5143 60.8398 24.7812C60.8398 26.1159 60.2734 27.1673 59.1406 27.9355C58.0078 28.6973 56.7025 29.0781 55.2246 29.0781H52.8418C50.4264 29.0781 48.6133 28.502 47.4023 27.3496ZM63.4668 27.7891C62.4512 26.8516 61.9434 25.4714 61.9434 23.6484C61.9434 21.819 62.4512 20.4388 63.4668 19.5078C64.4824 18.5703 65.9408 18.1016 67.8418 18.1016C69.7493 18.1016 71.2109 18.5703 72.2266 19.5078C73.2422 20.4388 73.75 21.819 73.75 23.6484C73.75 25.4714 73.2422 26.8516 72.2266 27.7891C71.2109 28.7266 69.7493 29.1953 67.8418 29.1953C65.9408 29.1953 64.4824 28.7266 63.4668 27.7891ZM65.9375 21.1094C65.5339 21.6367 65.332 22.4798 65.332 23.6387C65.332 24.7975 65.5339 25.6439 65.9375 26.1777C66.3411 26.7116 66.9759 26.9785 67.8418 26.9785C68.7142 26.9785 69.3522 26.7116 69.7559 26.1777C70.166 25.6439 70.3711 24.7975 70.3711 23.6387C70.3711 22.4798 70.166 21.6367 69.7559 21.1094C69.3522 20.582 68.7142 20.3184 67.8418 20.3184C66.9759 20.3184 66.3411 20.582 65.9375 21.1094ZM75.5566 28.4043V18.9023C75.5566 18.7266 75.612 18.5833 75.7227 18.4727C75.8398 18.3555 75.9831 18.2969 76.1523 18.2969H78.3398C78.5091 18.2969 78.6491 18.3555 78.7598 18.4727C78.877 18.5833 78.9355 18.7266 78.9355 18.9023V19.5176C80.0553 18.5736 81.2467 18.1016 82.5098 18.1016C83.7793 18.1016 84.8112 18.4889 85.6055 19.2637C86.3997 20.0319 86.7969 21.2103 86.7969 22.7988V28.4043C86.7969 28.5736 86.7383 28.7168 86.6211 28.834C86.5104 28.9447 86.3672 29 86.1914 29H84.0137C83.8444 29 83.7012 28.9447 83.584 28.834C83.4733 28.7168 83.418 28.5736 83.418 28.4043V22.7988C83.418 21.2428 82.7962 20.4648 81.5527 20.4648C80.7389 20.4648 79.8665 20.9303 78.9355 21.8613V28.4043C78.9355 28.5736 78.877 28.7168 78.7598 28.834C78.6491 28.9447 78.5091 29 78.3398 29H76.1523C75.9831 29 75.8398 28.9447 75.7227 28.834C75.612 28.7168 75.5566 28.5736 75.5566 28.4043ZM94.3066 26.8809L95.6445 26.7637H96.0059C96.1816 26.7637 96.3249 26.819 96.4355 26.9297C96.5527 27.0404 96.6113 27.1836 96.6113 27.3594V28.4043C96.6113 28.5475 96.5527 28.6777 96.4355 28.7949C96.3249 28.9056 96.1816 28.974 96.0059 29C95.3418 29.1302 94.4759 29.1953 93.4082 29.1953C90.6087 29.1953 89.209 27.7305 89.209 24.8008V15.6016C89.209 15.4258 89.2643 15.2826 89.375 15.1719C89.4922 15.0547 89.6354 14.9961 89.8047 14.9961H91.9922C92.1615 14.9961 92.3014 15.0547 92.4121 15.1719C92.5293 15.2826 92.5879 15.4258 92.5879 15.6016V18.8633H95.3125C95.4818 18.8633 95.6217 18.9186 95.7324 19.0293C95.8496 19.14 95.9082 19.2832 95.9082 19.459V20.6211C95.9082 20.7969 95.8496 20.9401 95.7324 21.0508C95.6217 21.1615 95.4818 21.2168 95.3125 21.2168H92.5879V24.8008C92.5879 25.4648 92.7441 25.9792 93.0566 26.3438C93.3691 26.7018 93.7858 26.8809 94.3066 26.8809ZM99.0137 27.7695C98.0111 26.819 97.5098 25.4518 97.5098 23.668C97.5098 21.8776 98.0143 20.5039 99.0234 19.5469C100.033 18.5833 101.432 18.1016 103.223 18.1016C105.013 18.1016 106.41 18.5703 107.412 19.5078C108.415 20.4388 108.916 21.7767 108.916 23.5215V24.0781C108.916 24.2539 108.857 24.4004 108.74 24.5176C108.63 24.6283 108.486 24.6836 108.311 24.6836H100.957C101.022 25.4844 101.25 26.0671 101.641 26.4316C102.038 26.7962 102.669 26.9785 103.535 26.9785C104.401 26.9785 104.993 26.7832 105.312 26.3926C105.632 26.002 106.025 25.8034 106.494 25.7969H107.949C108.125 25.7969 108.268 25.8555 108.379 25.9727C108.496 26.0833 108.555 26.2266 108.555 26.4023C108.555 28.2708 106.774 29.2018 103.213 29.1953C101.416 29.1953 100.016 28.7201 99.0137 27.7695ZM100.938 22.623H105.479C105.413 21.0866 104.658 20.3184 103.213 20.3184C101.774 20.3184 101.016 21.0866 100.938 22.623ZM109.658 28.6973C109.632 28.6322 109.619 28.554 109.619 28.4629C109.619 28.3652 109.671 28.2578 109.775 28.1406L113.174 23.6387L110 19.1562C109.792 18.8828 109.779 18.6419 109.961 18.4336C110.039 18.3424 110.15 18.2969 110.293 18.2969H112.412C113.044 18.2969 113.551 18.5833 113.936 19.1562L115.557 21.6172L117.178 19.1562C117.562 18.5833 118.07 18.2969 118.701 18.2969H120.82C120.964 18.2969 121.074 18.3424 121.152 18.4336C121.335 18.6419 121.322 18.8828 121.113 19.1562L117.939 23.6387L121.338 28.1406C121.442 28.2578 121.494 28.3685 121.494 28.4727C121.494 28.5703 121.481 28.6452 121.455 28.6973C121.403 28.8991 121.263 29 121.035 29H118.955C118.356 29 117.848 28.7135 117.432 28.1406L115.557 25.6016L113.672 28.1406C113.262 28.7135 112.757 29 112.158 29H110.078C109.85 29 109.71 28.8991 109.658 28.6973ZM123.721 27.7891C122.705 26.8516 122.197 25.4714 122.197 23.6484C122.197 21.819 122.705 20.4388 123.721 19.5078C124.736 18.5703 126.195 18.1016 128.096 18.1016C130.003 18.1016 131.465 18.5703 132.48 19.5078C133.496 20.4388 134.004 21.819 134.004 23.6484C134.004 25.4714 133.496 26.8516 132.48 27.7891C131.465 28.7266 130.003 29.1953 128.096 29.1953C126.195 29.1953 124.736 28.7266 123.721 27.7891ZM126.191 21.1094C125.788 21.6367 125.586 22.4798 125.586 23.6387C125.586 24.7975 125.788 25.6439 126.191 26.1777C126.595 26.7116 127.23 26.9785 128.096 26.9785C128.968 26.9785 129.606 26.7116 130.01 26.1777C130.42 25.6439 130.625 24.7975 130.625 23.6387C130.625 22.4798 130.42 21.6367 130.01 21.1094C129.606 20.582 128.968 20.3184 128.096 20.3184C127.23 20.3184 126.595 20.582 126.191 21.1094Z" fill="black"/>
<path d="M11.3025 11.3025C14.4236 8.18141 19.4839 8.18141 22.605 11.3025V11.3025L16.9538 16.9538L11.3025 11.3025V11.3025Z" fill="#6C96B1"/>
<path d="M22.605 33.9077C19.4839 37.0288 14.4236 37.0288 11.3025 33.9077V33.9077L16.9538 28.2564L22.605 33.9077V33.9077Z" fill="#6C96B1"/>
<path d="M11.3025 11.3026L16.9538 16.9539L5.65121 28.2564V28.2564C2.5301 25.1353 2.5301 20.075 5.65121 16.9539L11.3025 11.3026Z" fill="#9BBECD"/>
<path d="M16.9538 16.9539L22.605 11.3026L33.9076 22.6051C37.0287 25.7262 37.0287 30.7866 33.9076 33.9077V33.9077L16.9538 16.9539Z" fill="#6C96B1"/>
<path d="M11.3025 22.6051L16.9538 28.2564L11.3025 33.9077L5.65121 28.2564L11.3025 22.6051Z" fill="#6C96B1"/>
<path d="M22.6051 33.9077L16.9538 28.2564L33.9076 11.3026V11.3026C37.0287 14.4237 37.0287 19.4841 33.9076 22.6052L22.6051 33.9077Z" fill="#9BBECD"/>
</svg>
